<svg width="24" height="24" viewBox="0 0 24 24" fill="none" xmlns="http://www.w3.org/2000/svg">
<path d="M23.99 17.3156V21.1834C23.7802 21.7956 23.3206 22.0094 22.6811 21.9997C16.5462 21.99 10.4113 21.9997 4.27644 21.9997C4.18651 21.9997 4.08659 21.9997 3.99667 21.9997C3.44713 21.9608 3.01749 21.5527 3.00749 21.0279C3.00749 19.8423 3.00749 18.6664 3.00749 17.4808C3.00749 17.0241 3.34721 16.6451 3.80683 16.5382C3.94671 16.509 4.09659 16.4993 4.25645 16.4798C4.25645 16.0134 4.25645 15.5664 4.25645 15.1096C4.25645 14.925 4.21649 14.8375 4.01665 14.7695C2.06828 14.0892 0.799334 12.7773 0.209825 10.8531C0.109908 10.5324 0.0699417 10.1923 0 9.85216C0 9.52175 0 9.18162 0 8.8512C0.0399667 8.64713 0.0699417 8.43333 0.109908 8.22925C0.619484 5.87749 2.47794 4.13796 4.95587 3.69094C7.25395 3.28278 9.68193 4.36148 10.9409 6.36339C11.0308 6.49944 11.1207 6.53832 11.2806 6.53832C13.199 6.53832 15.1174 6.53832 17.0458 6.53832C17.1257 6.53832 17.1957 6.53832 17.2756 6.5286V5.84834C17.1657 5.84834 17.0758 5.84834 16.9858 5.84834C15.8468 5.84834 14.7077 5.84834 13.5687 5.84834C13.0691 5.84834 12.8493 5.63454 12.8493 5.15836C12.8493 4.33232 12.8493 3.50629 12.8493 2.68026C12.8493 2.22351 13.0791 2 13.5587 2C16.4363 2 19.3239 2 22.2015 2C22.6911 2 22.9109 2.2138 22.9109 2.6997C22.9109 3.50629 22.9109 4.30317 22.9109 5.10977C22.9109 5.64426 22.7011 5.84834 22.1415 5.84834C21.0125 5.84834 19.8734 5.84834 18.7444 5.84834C18.6545 5.84834 18.5645 5.84834 18.4846 5.84834V6.53832C19.254 6.53832 20.0033 6.53832 20.7527 6.53832C20.8826 6.53832 21.0225 6.53832 21.1524 6.55775C22.1116 6.72296 22.741 7.45181 22.741 8.41389C22.741 11.0086 22.741 13.613 22.741 16.2077C22.741 16.2952 22.741 16.3827 22.741 16.4993C23.3905 16.4604 23.8002 16.7422 24 17.3156H23.99ZM5.44546 16.4896H21.562V16.2563C21.562 13.6616 21.562 11.0766 21.562 8.48192C21.562 7.93771 21.2923 7.67532 20.7327 7.67532C17.7652 7.67532 14.8077 7.67532 11.8401 7.67532H11.5903C12.1099 9.62865 11.8102 11.3973 10.5112 12.9522C9.22231 14.4974 7.50375 15.1679 5.45545 15.0902V16.4993L5.44546 16.4896ZM22.811 17.6557H4.18651V20.8432H22.811V17.6557ZM5.91507 4.75992C3.29725 4.75992 1.17902 6.82014 1.18901 9.35654C1.18901 11.8832 3.31724 13.9532 5.92506 13.9532C8.53289 13.9532 10.6511 11.8832 10.6511 9.34682C10.6511 6.81042 8.53289 4.75992 5.91507 4.75992ZM21.7219 3.15644H14.0283V4.69189H21.7219V3.15644Z" fill="#6A6A6A"/>
<path d="M17.1455 8.35562C18.1247 8.35562 19.1138 8.35562 20.093 8.35562C20.5626 8.35562 20.7824 8.5597 20.7924 9.01645C20.7924 9.54122 20.7924 10.066 20.7924 10.581C20.7924 11.0378 20.5726 11.2613 20.103 11.2613C18.1247 11.2613 16.1563 11.2613 14.178 11.2613C13.7283 11.2613 13.4985 11.0378 13.4985 10.6005C13.4985 10.066 13.4985 9.52179 13.4985 8.98729C13.4985 8.57914 13.7283 8.35562 14.148 8.35562C15.1471 8.35562 16.1463 8.35562 17.1455 8.35562ZM14.6775 10.1049H19.6034V9.51207H14.6775V10.1049Z" fill="#6A6A6A"/>
<path d="M5.07573 10.8822C4.66607 11.3389 3.96665 11.4264 3.49704 11.0862C3.27723 10.9307 3.22727 10.6878 3.35716 10.5032C3.49704 10.3088 3.72685 10.2796 3.96665 10.4157C4.15649 10.5323 4.33634 10.5032 4.46624 10.3379C4.59613 10.1727 4.57614 10.027 4.40629 9.87148C4.17648 9.65769 3.93668 9.45361 3.69688 9.23981C3.3072 8.88996 3.1873 8.44293 3.37714 7.9959C3.55699 7.53916 4.00662 7.2379 4.5062 7.22818C4.5062 7.22818 4.52619 7.22818 4.53618 7.22818C4.53618 7.22818 4.53618 7.22818 4.55616 7.22818C4.55616 7.22818 4.55616 7.22818 4.56615 7.22818C4.56615 7.22818 4.57614 7.22818 4.58614 7.22818C4.58614 7.22818 4.59613 7.22818 4.60612 7.22818C4.61611 7.22818 4.6261 7.22818 4.63609 7.22818C4.66607 7.2379 4.69604 7.24762 4.72602 7.24762C4.746 7.24762 4.76599 7.25733 4.77598 7.26705C4.91586 7.32536 5.05574 7.37395 5.18564 7.4517C5.40545 7.58775 5.43543 7.8307 5.29554 8.01534C5.16565 8.19998 4.92585 8.23885 4.70604 8.1028C4.53618 7.98619 4.37631 8.00562 4.23643 8.14167C4.08655 8.28745 4.08655 8.48181 4.23643 8.61786C4.5062 8.86081 4.78597 9.09404 5.04575 9.34671C5.47539 9.75487 5.47539 10.4157 5.06574 10.8724L5.07573 10.8822Z" fill="#6A6A6A"/>
<path d="M7.86321 7.49062C7.65339 8.19032 7.43357 8.8803 7.21375 9.58C7.09385 9.96872 6.96396 10.3672 6.84406 10.7559C6.7941 10.9308 6.69419 11.0571 6.49435 11.096C6.23457 11.1446 6.00476 10.96 6.00476 10.6684C6.00476 10.6393 6.01475 10.581 6.03474 10.5226C6.37445 9.45366 6.70418 8.38468 7.0439 7.3157C7.0439 7.29626 7.0439 7.27682 7.06388 7.25739C7.1538 7.03387 7.35364 6.92698 7.57345 6.98528C7.80326 7.05331 7.92316 7.25739 7.85322 7.49062H7.86321Z" fill="#6A6A6A"/>
<path d="M8.41299 10.9308C8.18318 10.9308 8.00333 10.7559 7.99334 10.5421C7.99334 10.3186 8.18318 10.1243 8.41299 10.134C8.6428 10.134 8.82265 10.3186 8.81266 10.5421C8.81266 10.7656 8.63281 10.9406 8.403 10.9406L8.41299 10.9308Z" fill="#6A6A6A"/>
</svg>
