<svg width="24" height="24" viewBox="0 0 24 24" fill="none" xmlns="http://www.w3.org/2000/svg">
<path d="M14.5201 10.7147H19.8188V10.0773H14.5201V10.7147Z" fill="#9B0000"/>
<path d="M5.08373 4.96768C2.27854 4.97813 0 7.18293 0 9.91018C0 12.627 2.28929 14.8527 5.09447 14.8527C7.89966 14.8527 10.1782 12.627 10.1782 9.89973C10.1782 7.17248 7.89966 4.96768 5.08373 4.96768ZM4.19166 11.5507C3.75099 12.0418 2.99865 12.1359 2.4935 11.7702C2.25705 11.603 2.20331 11.3417 2.34303 11.1432C2.4935 10.9342 2.7407 10.9029 2.99865 11.0492C3.20285 11.1745 3.39632 11.1432 3.53604 10.9656C3.67576 10.7879 3.65426 10.6312 3.47155 10.464C3.22435 10.2341 2.9664 10.0147 2.70845 9.78479C2.28929 9.40862 2.16032 8.92795 2.36452 8.44729C2.55798 7.95617 3.04164 7.63224 3.57903 7.6218C3.57903 7.6218 3.60052 7.6218 3.61127 7.6218C3.61127 7.6218 3.61127 7.6218 3.63277 7.6218C3.63277 7.6218 3.63277 7.6218 3.64352 7.6218C3.64352 7.6218 3.65426 7.6218 3.66501 7.6218C3.66501 7.6218 3.67576 7.6218 3.68651 7.6218C3.69726 7.6218 3.708 7.6218 3.71875 7.6218C3.75099 7.63224 3.78324 7.64269 3.81548 7.64269C3.83698 7.64269 3.85847 7.65314 3.86922 7.66359C4.01969 7.72629 4.17016 7.77853 4.30988 7.86213C4.54633 8.00842 4.57858 8.26965 4.42811 8.46819C4.28839 8.66672 4.03044 8.70852 3.79399 8.56223C3.61127 8.43684 3.43931 8.45774 3.28884 8.60403C3.12762 8.76077 3.12762 8.96975 3.28884 9.11604C3.57903 9.37727 3.87997 9.62805 4.15941 9.89973C4.62157 10.3386 4.62157 11.0492 4.18091 11.5403L4.19166 11.5507ZM7.17955 7.90393C6.95385 8.65627 6.7174 9.39817 6.48095 10.1505C6.35197 10.5685 6.21225 10.9969 6.08327 11.4149C6.02954 11.603 5.92206 11.7388 5.7071 11.7806C5.42766 11.8224 5.18046 11.6343 5.18046 11.3208C5.18046 11.2895 5.1912 11.2268 5.2127 11.1641C5.57813 10.0147 5.93281 8.86526 6.29823 7.71584C6.29823 7.69494 6.29823 7.67404 6.31973 7.65314C6.41646 7.41281 6.63141 7.29787 6.86787 7.36056C7.11507 7.43371 7.24404 7.65314 7.16881 7.90393H7.17955ZM7.77069 11.603C7.52349 11.603 7.33002 11.4149 7.31928 11.185C7.31928 10.9447 7.52349 10.7357 7.77069 10.7461C8.01789 10.7461 8.21135 10.9447 8.2006 11.185C8.2006 11.4253 8.00714 11.6134 7.75994 11.6134L7.77069 11.603Z" fill="#9B0000"/>
<path d="M3.57911 18.5726V22H24V18.5726H3.57911Z" fill="#9B0000"/>
<path d="M14.5201 10.7147H19.8188V10.0773H14.5201V10.7147Z" fill="#9B0000"/>
<path d="M21.4733 6.91115C21.3335 6.89025 21.1938 6.89025 21.0433 6.89025C20.2372 6.89025 19.4312 6.89025 18.6036 6.89025V6.14836H18.883C20.0975 6.14836 21.3228 6.14836 22.5373 6.14836C23.1392 6.14836 23.3649 5.92892 23.3649 5.35421C23.3649 4.48692 23.3649 3.63008 23.3649 2.7628C23.3649 2.25078 23.1284 2.01045 22.6018 2.01045C19.5064 2 16.4003 2 13.3049 2C12.789 2 12.5418 2.22988 12.5418 2.73145C12.5418 3.61964 12.5418 4.50782 12.5418 5.39601C12.5418 5.90802 12.7783 6.13791 13.3156 6.13791C14.5409 6.13791 15.7662 6.13791 16.9914 6.13791H17.3031V6.86936C17.2171 6.86936 17.1419 6.87981 17.0559 6.87981C14.9923 6.87981 12.9287 6.87981 10.8544 6.87981C10.8329 6.87981 10.8221 6.87981 10.8007 6.87981C11.3165 7.78889 11.6175 8.82337 11.6175 9.94144C11.6175 13.4001 8.72632 16.211 5.16879 16.211C5.00757 16.211 4.8571 16.1901 4.69588 16.1796C4.69588 16.2214 4.71738 16.2632 4.71738 16.3155C4.71738 16.3991 4.70663 16.4827 4.69588 16.5558C4.69588 16.629 4.71738 16.6917 4.72812 16.7648C4.72812 16.8171 4.70663 16.8693 4.69588 16.9215C4.70663 16.9633 4.72812 17.0051 4.72812 17.0469V17.35C4.72812 17.35 4.70663 17.4231 4.69588 17.4649H23.1714V17.2873C23.1714 14.4973 23.1714 11.6969 23.1714 8.90696C23.1714 7.87249 22.4943 7.08879 21.4625 6.91115H21.4733ZM13.8208 4.89445V3.24346H22.0966V4.89445H13.8208ZM20.3555 11.9581C18.2274 11.9581 16.1101 11.9581 13.982 11.9581C13.4984 11.9581 13.2512 11.7178 13.2512 11.2476C13.2512 10.6729 13.2512 10.0877 13.2512 9.51302C13.2512 9.07415 13.4984 8.83382 13.9498 8.83382C15.0246 8.83382 16.0993 8.83382 17.1741 8.83382C18.2274 8.83382 19.2914 8.83382 20.3447 8.83382C20.8499 8.83382 21.0863 9.05325 21.0971 9.54437C21.0971 10.1086 21.0971 10.6729 21.0971 11.2267C21.0971 11.7178 20.8606 11.9581 20.3555 11.9581Z" fill="#9B0000"/>
</svg>
