<svg width="24" height="24" viewBox="0 0 24 24" fill="none" xmlns="http://www.w3.org/2000/svg">
<g clip-path="url(#clip0_1463_12421)">
<path d="M11.8647 0.0200344C11.9449 0.0200344 12.0251 0.0200344 12.1052 0.0200344C12.1253 0.0300516 12.1353 0.0601032 12.1553 0.0601032C12.5461 0.150258 12.937 0.220379 13.3177 0.340585C14.0994 0.601032 14.7507 1.05181 15.342 1.59274C15.7228 1.94334 16.0234 2.36406 16.2639 2.81483C16.3741 3.01518 16.5044 3.06527 16.7148 3.06527C17.286 3.06527 17.8672 3.04523 18.4384 3.09532C19.2301 3.16544 20.0117 3.28564 20.7733 3.48599C21.7052 3.7264 22.5971 4.04695 23.3386 4.69807C23.7495 5.06871 24 5.51948 24 6.07043C24 11.0289 24 15.9875 24 20.936C24 21.2665 23.9098 21.5771 23.7194 21.8676C23.3887 22.3784 22.8977 22.699 22.3666 22.9594C21.7152 23.28 21.0238 23.4904 20.3223 23.6506C19.5407 23.8309 18.739 23.9511 17.9374 23.9812C16.785 24.0213 15.6326 24.0112 14.4902 23.8109C13.6785 23.6707 12.8868 23.4904 12.1152 23.1798C12.0251 23.1498 11.9649 23.1498 11.8747 23.1798C11.2334 23.4002 10.5921 23.5805 9.92067 23.7207C9.26931 23.861 8.61795 23.9411 7.9666 23.9712C6.92443 24.0112 5.87223 24.0112 4.83006 23.851C3.90814 23.7107 3.00626 23.5304 2.13445 23.1898C1.53319 22.9494 0.962004 22.6489 0.501044 22.1681C0.250522 21.9177 0.140292 21.6071 0 21.3066V8.65487C0.080167 8.59476 0.0601253 8.49459 0.0901879 8.41445C0.34071 7.88354 0.761587 7.54296 1.26263 7.23242C1.8739 6.86179 2.52526 6.63139 3.19666 6.45108C4.05846 6.22069 4.95031 6.12051 5.83215 6.04038C5.97244 6.03036 5.99248 5.99029 5.99248 5.87008C6.00251 5.39927 5.99249 4.93848 6.07265 4.46767C6.26305 3.41587 6.76409 2.54437 7.45553 1.75301C7.66597 1.5126 7.92651 1.33229 8.17704 1.13194C8.74823 0.661136 9.39958 0.380654 10.101 0.18031C10.3015 0.120206 10.5319 0.18031 10.6823 0H10.8225C10.8626 0.0701204 10.9228 0.0200344 10.9729 0.0300516C11.033 0.050086 11.0931 0.0300516 11.1532 0H11.5741C11.6743 0.0901549 11.7745 0.0901549 11.8647 0.0200344ZM16.4443 7.90358C16.4443 7.90358 16.3841 7.95366 16.3841 7.9737C16.3841 8.00375 16.4142 8.01377 16.4443 7.9737C16.8952 8.06385 17.3662 8.01377 17.8171 8.00375C18.3382 7.98371 18.8593 7.92361 19.3704 7.84347C20.0217 7.7433 20.643 7.57301 21.2643 7.36265C21.7653 7.19235 22.2363 6.95194 22.6472 6.61136C22.9779 6.34089 23.1081 5.89012 22.7775 5.53952C22.4167 5.15886 21.9758 4.93848 21.5148 4.74816C20.9236 4.50774 20.3123 4.3675 19.691 4.22726C19.5608 4.19721 19.4205 4.13711 19.3203 4.14712C18.9495 4.19721 18.5987 4.077 18.238 4.06699C17.8171 4.04695 17.3962 4.03693 16.9754 4.00688C16.8251 3.99687 16.795 4.06699 16.8251 4.18719C16.8852 4.42761 16.8952 4.67804 16.9353 4.91845C16.9854 5.30912 16.9954 5.69979 16.9553 6.08044C16.8852 6.71153 16.7248 7.32258 16.4443 7.89356V7.90358ZM14.7708 11.8604C14.6605 11.8904 14.5603 11.8403 14.4501 11.8303C13.5282 11.7001 12.6263 11.4697 11.7846 11.069C11.7244 11.039 11.6643 11.0289 11.6042 11.0289C11.0029 11.0089 11.0129 11.0089 10.9929 11.6099C10.9729 12.0908 11.063 12.5015 11.514 12.7719C11.7846 12.9322 12.015 13.1526 12.3457 13.1927H12.3658C12.5562 13.3329 12.8067 13.3529 13.0171 13.4531C13.7286 13.7837 14.4902 13.8037 15.2418 13.9339C15.6827 14.0141 16.1336 13.994 16.5745 14.0141C17.3361 14.0441 18.0977 14.0141 18.8493 13.9339C19.4906 13.8638 20.1319 13.7136 20.7532 13.5433C21.3445 13.383 21.9157 13.1526 22.4267 12.802C22.7274 12.6016 22.9979 12.3512 23.0079 11.9605C23.018 11.5599 23.0079 11.1692 23.0079 10.7685C23.0079 10.6683 23.0079 10.6082 22.8777 10.6884C22.0459 11.2493 21.104 11.5198 20.152 11.7301C19.21 11.9305 18.248 12.0307 17.276 12.0206C16.7649 12.0206 16.2539 12.0206 15.7528 12.0206C15.7328 11.9305 15.6927 11.9105 15.6125 11.9605C15.362 12.0006 15.1115 11.9105 14.861 11.9105C14.8509 11.8604 14.8309 11.8203 14.7708 11.8604ZM14.7708 17.8607C14.5403 17.8907 14.3299 17.8106 14.1194 17.7705C13.2276 17.6203 12.3658 17.3698 11.5541 16.9691C11.3737 16.879 11.2334 16.7187 11.0129 16.6786C11.0129 17.0293 11.033 17.3598 11.0129 17.7004C10.9829 18.2113 11.1933 18.5619 11.6142 18.8323C12.5962 19.4634 13.6985 19.7239 14.8309 19.8942C15.4121 19.9843 16.0033 20.0044 16.6046 20.0144C17.0054 20.0144 17.4163 20.0344 17.8171 20.0144C18.3382 19.9943 18.8593 19.9443 19.3804 19.8441C20.3223 19.6738 21.2643 19.4634 22.1061 18.9926C22.4468 18.8023 22.8175 18.612 22.9478 18.2113C23.0981 17.7305 22.9979 17.2196 23.0079 16.7287C23.0079 16.6386 22.9378 16.6686 22.8777 16.6987C22.7173 16.7989 22.567 16.899 22.3967 16.9691C21.9357 17.1795 21.4747 17.3899 20.9837 17.5101C20.4326 17.6403 19.8914 17.7906 19.3203 17.8607C18.9094 17.9108 18.4985 18.0009 18.0877 18.0109C17.0155 18.031 15.9432 18.051 14.871 17.9108C14.861 17.8607 14.8409 17.8206 14.7808 17.8607H14.7708ZM11.2835 19.8241C11.2835 19.8241 11.2635 19.794 11.2534 19.8241C11.1833 19.774 11.1132 19.7239 11.0129 19.6437C11.0129 20.1045 10.9929 20.5453 11.0129 20.976C11.023 21.1363 11.063 21.3166 11.1933 21.4669C11.4238 21.7273 11.7144 21.9277 12.0251 22.0779C12.6163 22.3584 13.2376 22.5688 13.8889 22.709C14.7307 22.8893 15.5825 22.9895 16.4443 23.0195C17.5967 23.0596 18.739 22.9795 19.8814 22.7391C20.7833 22.5487 21.6551 22.2983 22.4267 21.7874C22.7274 21.5871 22.9979 21.3467 23.0079 20.946C23.0079 20.5653 23.0079 20.1847 23.0079 19.794C23.0079 19.6538 22.9879 19.6037 22.8376 19.7038C22.4267 19.9743 21.9758 20.1747 21.5048 20.3249C20.9036 20.5253 20.2823 20.6655 19.6509 20.7757C19.0397 20.8859 18.4284 20.966 17.8171 20.986C17.1157 21.0061 16.4142 21.0261 15.7127 20.956C15.0213 20.8859 14.3198 20.8158 13.6384 20.6555C12.8167 20.4652 12.015 20.2247 11.2735 19.814L11.2835 19.8241ZM11.1532 13.7336C11.1532 13.7336 11.1232 13.7136 11.1031 13.7035C11.023 13.6434 11.0029 13.6835 11.0029 13.7636C11.0029 14.1643 10.9829 14.565 11.0029 14.9557C11.023 15.1961 11.0931 15.4365 11.3035 15.6068C11.9148 16.1077 12.6463 16.3781 13.3879 16.5985C14.2998 16.859 15.2518 16.9792 16.2038 17.0192C16.795 17.0493 17.3962 17.0493 17.9975 16.9892C18.6288 16.9291 19.2501 16.869 19.8714 16.7488C20.7733 16.5685 21.6451 16.308 22.4167 15.7971C22.7173 15.5968 22.9879 15.3564 22.9979 14.9557C23.0079 14.575 22.9979 14.1944 22.9979 13.8037C22.9979 13.6735 22.9979 13.6034 22.8376 13.7136C22.3866 14.0041 21.9056 14.2044 21.3946 14.3747C20.8134 14.565 20.2121 14.6952 19.6109 14.8054C18.9595 14.9256 18.2981 14.9958 17.6367 15.0158C16.9954 15.0258 16.3441 15.0458 15.7027 14.9857C15.0714 14.9256 14.4401 14.8756 13.8288 14.7353C12.8969 14.525 11.9749 14.2845 11.1633 13.7536L11.1532 13.7336ZM7.00459 5.51948C7.00459 8.00375 9.01879 10.0272 11.4639 10.0272C13.9992 10.0272 15.9232 8.14399 16.0033 5.66974C16.0835 2.91501 13.9491 1.03177 11.524 1.02176C9.00877 1.01174 6.99457 3.05525 7.00459 5.51948ZM9.70021 10.7785C9.3595 10.5581 8.99875 10.4279 8.67808 10.2276C7.52568 9.51635 6.72401 8.51463 6.28309 7.24244C6.21294 7.05211 6.12276 7.01204 5.97244 7.05211C5.70188 7.13225 5.43132 7.1022 5.16075 7.13225C4.18873 7.24244 3.24676 7.43277 2.34489 7.81342C1.85386 8.02378 1.38288 8.27421 1.07223 8.74502C0.951983 8.92533 0.962004 9.10564 1.07223 9.28595C1.31273 9.68664 1.71357 9.93707 2.1144 10.1274C3.25678 10.6583 4.47933 10.9087 5.73194 10.9789C6.75407 11.039 7.76618 11.049 8.78831 10.9388C9.09896 10.9087 9.39958 10.8386 9.71023 10.7885L9.70021 10.7785ZM10.8225 22.4886C10.3115 22.0379 9.96075 21.537 9.99081 20.8458C9.99081 20.7557 9.96075 20.7356 9.87056 20.7557C9.21921 20.8859 8.55783 20.966 7.89645 20.9961C6.59374 21.0361 5.29102 20.9961 4.00835 20.7356C3.00626 20.5253 2.04426 20.2448 1.17244 19.7139C1.02213 19.6237 1.00209 19.6838 1.01211 19.814C1.01211 20.1346 1.03215 20.4551 1.01211 20.7757C0.982046 21.1964 1.17244 21.4869 1.49311 21.7273C1.94405 22.0579 2.45511 22.2783 2.98622 22.4586C3.85804 22.7491 4.75992 22.9194 5.67182 22.9695C6.91441 23.0396 8.15699 23.0496 9.39958 22.8392C9.88058 22.7591 10.3616 22.679 10.8326 22.4986L10.8225 22.4886ZM6.98455 17.0092C7.94656 16.9892 8.90856 16.9591 9.85052 16.7488C9.95073 16.7287 10.0008 16.6987 10.0008 16.5885C10.0008 16.0075 10.0008 15.4365 9.99081 14.8555C9.99081 14.7654 9.97077 14.7253 9.87056 14.7654C9.56994 14.8856 9.24927 14.7954 8.93862 14.8956C8.61795 14.9958 8.24718 14.9958 7.90647 15.0058C6.66388 15.0258 5.42129 15.0058 4.19875 14.7754C3.12651 14.575 2.09436 14.2845 1.16242 13.7035C1.02213 13.6134 1.01211 13.6835 1.01211 13.8037C1.01211 14.0842 1.04217 14.3647 1.01211 14.6452C0.941962 15.2061 1.23257 15.5467 1.66347 15.8372C2.37495 16.318 3.18664 16.5484 3.99833 16.7287C4.98038 16.9491 5.99248 17.0092 6.99457 16.9992L6.98455 17.0092ZM7.09478 14.0241C7.99666 14.0241 8.88852 13.9339 9.78038 13.7837C9.88059 13.7636 10.0109 13.7536 10.0109 13.5833C10.0008 13.0224 10.0008 12.4614 10.0008 11.9004C10.0008 11.8103 9.97077 11.7702 9.88059 11.7802C9.63006 11.8003 9.36952 11.8003 9.13904 11.8604C8.75825 11.9605 8.37745 11.9906 8.00668 12.0006C7.25512 12.0206 6.50355 12.0407 5.74196 11.9806C5.00042 11.9205 4.25887 11.8103 3.53737 11.65C2.69562 11.4597 1.89395 11.1692 1.16242 10.7184C1.04217 10.6383 1.02213 10.6984 1.02213 10.8086C1.02213 11.2493 1.02213 11.6801 1.02213 12.1208C1.02213 12.201 1.07223 12.251 1.1023 12.3111C1.3428 12.7118 1.73361 12.9422 2.12443 13.1326C3.07641 13.5934 4.10856 13.8237 5.16075 13.944C5.81211 14.0141 6.46347 14.0141 7.11482 14.0441L7.09478 14.0241ZM6.92443 20.0144C7.9666 19.9843 8.90856 19.9643 9.83048 19.7439C9.95073 19.7139 10.0109 19.6838 10.0109 19.5536C10.0109 19.0026 10.0008 18.4617 10.0109 17.9108C10.0109 17.8006 9.97077 17.7505 9.86054 17.7705C9.63006 17.8106 9.36952 17.7805 9.1691 17.8406C8.79833 17.9508 8.41754 17.9709 8.05679 17.9909C7.03466 18.031 6.00251 18.031 4.9904 17.9007C4.49937 17.8406 4.00835 17.7505 3.51733 17.6303C2.69562 17.4199 1.90397 17.1495 1.18246 16.6987C1.06221 16.6185 1.02213 16.6486 1.02213 16.7888C1.02213 17.1194 1.04217 17.46 1.02213 17.7906C0.992067 18.1512 1.1524 18.4116 1.40292 18.622C1.56326 18.7622 1.75365 18.8824 1.94405 18.9826C2.94614 19.5436 4.04843 19.7539 5.16075 19.9042C5.78205 19.9843 6.42338 19.9743 6.94447 20.0044L6.92443 20.0144ZM13.5883 10.5982C13.6484 10.6383 13.6885 10.6783 13.7286 10.6884C14.0894 10.7585 14.4501 10.8386 14.8109 10.8887C15.4121 10.9688 16.0134 11.0089 16.6246 11.0089C17.0856 11.0089 17.5566 10.9989 18.0175 10.9889C18.719 10.9688 19.4104 10.8486 20.0919 10.7084C20.9236 10.5381 21.7253 10.2777 22.4367 9.79683C22.7273 9.59648 22.9979 9.36609 23.0079 8.97542C23.018 8.57473 23.0079 8.18406 23.0079 7.78337C23.0079 7.67318 23.0079 7.61308 22.8676 7.70323C22.4668 7.98371 22.0159 8.17404 21.5549 8.33432C20.623 8.65487 19.661 8.83518 18.6889 8.94537C17.8071 9.04554 16.9152 9.03552 16.0334 9.01549C15.7929 9.01549 15.6827 9.07559 15.5524 9.22585C15.0113 9.82688 14.38 10.2977 13.5883 10.6182V10.5982Z" fill="#6A6A6A"/>
<path d="M10.3919 7.38265C9.94093 7.90355 9.16932 8.00372 8.64823 7.61305C8.40773 7.43274 8.34761 7.16227 8.49792 6.95191C8.64823 6.73153 8.89876 6.69146 9.16932 6.85174C9.37976 6.98196 9.57015 6.95191 9.72047 6.76159C9.86076 6.57126 9.84072 6.41098 9.65032 6.23067C9.38978 5.99026 9.12924 5.74985 8.86869 5.51945C8.43779 5.12878 8.30752 4.6179 8.50794 4.09701C8.70836 3.57611 9.19938 3.23553 9.75053 3.22551C9.76055 3.22551 9.77057 3.22551 9.78059 3.22551C9.78059 3.22551 9.79061 3.22551 9.80063 3.22551C9.80063 3.22551 9.80064 3.22551 9.81066 3.22551C9.81066 3.22551 9.8307 3.22551 9.84072 3.22551C9.84072 3.22551 9.85074 3.22551 9.86076 3.22551C9.87078 3.22551 9.89082 3.22551 9.90084 3.22551C9.93091 3.23553 9.96097 3.24555 10.0011 3.24555C10.0211 3.24555 10.0411 3.25556 10.0612 3.26558C10.2115 3.32568 10.3718 3.38579 10.5121 3.47594C10.7526 3.6262 10.7827 3.90668 10.6324 4.11704C10.4821 4.3274 10.2215 4.37749 9.98101 4.21721C9.79061 4.08699 9.62026 4.10703 9.45992 4.25728C9.28957 4.41756 9.28957 4.63794 9.45992 4.79821C9.76055 5.07869 10.0712 5.33914 10.3518 5.62964C10.8228 6.10045 10.8228 6.84172 10.3718 7.36262L10.3919 7.38265Z" fill="#6A6A6A"/>
<path d="M13.4687 3.52602C13.2382 4.31738 12.9877 5.10874 12.7472 5.90009C12.6069 6.35087 12.4766 6.79163 12.3363 7.2424C12.2762 7.43273 12.176 7.593 11.9555 7.62306C11.6649 7.67314 11.4144 7.46278 11.4144 7.13221C11.4144 7.10216 11.4344 7.03204 11.4545 6.96192C11.8253 5.74984 12.196 4.52774 12.5668 3.31566C12.5668 3.29562 12.5768 3.27559 12.5868 3.24554C12.6871 2.99511 12.9075 2.86488 13.148 2.935C13.3985 3.00512 13.5388 3.23552 13.4587 3.516L13.4687 3.52602Z" fill="#6A6A6A"/>
<path d="M14.0792 7.4428C13.8287 7.4428 13.6182 7.25248 13.6182 7.00205C13.6182 6.75162 13.8287 6.53124 14.0892 6.53124C14.3397 6.53124 14.5401 6.7416 14.5401 6.99203C14.5401 7.25248 14.3497 7.4428 14.0892 7.4428H14.0792Z" fill="#6A6A6A"/>
</g>
<defs>
<clipPath id="clip0_1463_12421">
<rect width="24" height="24" fill="white"/>
</clipPath>
</defs>
</svg>
