<svg width="24" height="24" viewBox="0 0 24 24" fill="none" xmlns="http://www.w3.org/2000/svg">
<g clip-path="url(#clip0_1463_12424)">
<path d="M16.8268 7.50663C16.8268 7.50663 16.8268 7.56126 16.8268 7.59404C16.805 7.62682 16.7614 7.61589 16.7614 7.59404C16.7614 7.57219 16.805 7.53941 16.8268 7.51756V7.50663Z" fill="#9B0000"/>
<path d="M12.366 13.2758C12.366 13.2758 12.3769 13.2321 12.3878 13.2758H12.366Z" fill="#9B0000"/>
<path d="M11.0676 13.8656C11.0676 13.8656 11.0239 13.8656 11.013 13.8328C11.0349 13.8438 11.0458 13.8547 11.0676 13.8656Z" fill="#9B0000"/>
<path d="M11.2101 20.5091H11.1664C11.1773 20.4763 11.1883 20.4763 11.1992 20.5091H11.2101Z" fill="#9B0000"/>
<path d="M11.8421 2.68779C11.8421 2.68779 11.7984 2.61131 11.8421 2.58945C11.8857 2.5676 11.8857 2.61131 11.8966 2.64409C11.8748 2.65501 11.8639 2.67687 11.8421 2.68779Z" fill="#9B0000"/>
<path d="M1.21772 9.9321C2.46131 10.5112 3.79216 10.7844 5.15574 10.8608C6.26842 10.9264 7.37019 10.9373 8.48287 10.8171C8.82104 10.7844 9.1483 10.7079 9.48647 10.6532C9.11558 10.4129 8.72286 10.2708 8.37379 10.0523C7.11929 9.27651 6.2466 8.18386 5.76662 6.79619C5.69026 6.58859 5.59208 6.54489 5.42846 6.58859C5.13392 6.676 4.83939 6.64322 4.54486 6.676C3.48672 6.7962 2.46131 7.0038 1.47953 7.419C0.945005 7.64846 0.432299 7.92162 0.0941314 8.43517C-0.0367722 8.63185 -0.0258636 8.82852 0.0941314 9.0252C0.355939 9.46226 0.792284 9.73542 1.22863 9.94302L1.21772 9.9321Z" fill="#9B0000"/>
<path d="M11.3953 9.82296C14.1552 9.82296 16.2496 7.76878 16.3369 5.06993C16.4242 2.06515 14.1006 0.0109665 11.4608 4.00009e-05C8.72269 -0.0108865 6.53005 2.21812 6.54096 4.90604C6.54096 7.61581 8.7336 9.82296 11.3953 9.82296ZM14.2534 6.00961C14.5261 6.00961 14.7443 6.23907 14.7443 6.51223C14.7443 6.79632 14.537 7.00392 14.2534 7.00392C13.9807 7.00392 13.7516 6.79632 13.7516 6.52316C13.7516 6.24999 13.9807 6.00961 14.2643 6.00961H14.2534ZM11.3953 6.49038C11.7989 5.16827 12.2025 3.83524 12.6062 2.51313C12.6062 2.49128 12.6171 2.46943 12.628 2.43665C12.7371 2.16349 12.9771 2.02144 13.2389 2.09793C13.5116 2.17441 13.6643 2.42572 13.577 2.73166C13.3261 3.59486 13.0534 4.45805 12.7916 5.32124C12.6389 5.81293 12.4971 6.2937 12.3444 6.78539C12.2789 6.993 12.1698 7.16782 11.9298 7.2006C11.6135 7.25523 11.3408 7.02578 11.3408 6.6652C11.3408 6.63242 11.3626 6.55594 11.3844 6.47945L11.3953 6.49038ZM8.18817 3.35447C8.40634 2.7863 8.94086 2.4148 9.54084 2.40387C9.55175 2.40387 9.56265 2.40387 9.57356 2.40387C9.57356 2.40387 9.58447 2.40387 9.59538 2.40387C9.59538 2.40387 9.59538 2.40387 9.60629 2.40387C9.60629 2.40387 9.62811 2.40387 9.63902 2.40387C9.63902 2.40387 9.64992 2.40387 9.66083 2.40387C9.67174 2.40387 9.69356 2.40387 9.70447 2.40387C9.73719 2.4148 9.76992 2.42572 9.81355 2.42572C9.83537 2.42572 9.85719 2.43665 9.87901 2.44757C10.0426 2.51313 10.2172 2.57869 10.3699 2.67703C10.6317 2.84093 10.6644 3.14687 10.5008 3.37633C10.3372 3.60578 10.0535 3.66042 9.79174 3.48559C9.58447 3.34355 9.39903 3.3654 9.22449 3.5293C9.03904 3.70412 9.03904 3.9445 9.22449 4.11933C9.55175 4.42527 9.88991 4.70936 10.1954 5.02623C10.7081 5.53977 10.7081 6.34833 10.2172 6.91651C9.72628 7.48469 8.88632 7.59395 8.31907 7.16782C8.05726 6.97114 7.99181 6.67613 8.15544 6.44667C8.31907 6.20629 8.59179 6.16258 8.88632 6.33741C9.1154 6.47945 9.32267 6.44667 9.48629 6.23907C9.63902 6.03146 9.6172 5.85664 9.40993 5.65996C9.12631 5.39773 8.84268 5.13549 8.55906 4.88418C8.08999 4.45805 7.94818 3.9008 8.16635 3.33262L8.18817 3.35447Z" fill="#9B0000"/>
<path d="M13.7082 10.4457C13.7737 10.4894 13.8173 10.5331 13.861 10.544C14.2537 10.6205 14.6464 10.7079 15.0391 10.7625C15.6936 10.8499 16.3481 10.8936 17.0136 10.8936C17.5154 10.8936 18.0281 10.8827 18.5299 10.8718C19.2935 10.8499 20.0462 10.7188 20.7879 10.5658C21.6934 10.3801 22.5661 10.096 23.3406 9.57153C23.6569 9.353 23.9514 9.1017 23.9624 8.67556C23.9733 8.2385 23.9624 7.81237 23.9624 7.37531C23.9624 7.25512 23.9624 7.18956 23.8096 7.2879C23.3733 7.59384 22.8824 7.80144 22.3806 7.97627C21.3661 8.32591 20.3189 8.52259 19.2607 8.64278C18.3008 8.75205 17.3299 8.74112 16.3699 8.71927C16.1081 8.71927 15.9881 8.78483 15.8463 8.94872C15.2573 9.60431 14.57 10.1179 13.7082 10.4675V10.4457Z" fill="#9B0000"/>
<path d="M23.8315 10.5332C22.9261 11.1451 21.9007 11.4401 20.8644 11.6696C19.839 11.8881 18.7917 11.9974 17.7336 11.9865C17.1773 11.9865 16.6209 11.9865 16.0755 11.9865C16.0646 11.9865 16.0537 11.9865 16.0428 11.9865C15.9664 11.9865 15.9119 11.9537 15.8464 11.9318C15.8464 11.9318 15.8464 11.9318 15.8355 11.9318C15.7809 11.9318 15.7373 11.91 15.6937 11.899C15.4973 11.899 15.3119 11.8553 15.1155 11.8553C15.0283 11.8553 14.9519 11.8335 14.8973 11.8007C14.821 11.8007 14.7555 11.7789 14.6792 11.7679C13.6756 11.6259 12.6938 11.3746 11.7775 10.9375C11.712 10.9047 11.6466 10.8938 11.5811 10.8938C10.9266 10.872 10.9375 10.872 10.9157 11.5275C10.8939 12.052 10.9921 12.5 11.4829 12.795C11.7775 12.9698 12.0284 13.2102 12.3884 13.2539H12.4102C12.6174 13.4069 12.8902 13.4288 13.1192 13.538C13.8938 13.8986 14.7228 13.9204 15.541 14.0625C16.0209 14.1499 16.5118 14.1281 16.9918 14.1499C17.8209 14.1827 18.6499 14.1499 19.4681 14.0625C20.1662 13.986 20.8644 13.8221 21.5407 13.6364C22.1843 13.4615 22.8061 13.2102 23.3625 12.8278C23.6897 12.6093 23.9842 12.3361 23.9952 11.91C24.0061 11.4729 23.9952 11.0468 23.9952 10.6097C23.9952 10.5005 23.9952 10.4349 23.8533 10.5223L23.8315 10.5332Z" fill="#9B0000"/>
<path d="M1.20583 13.1883C2.24215 13.691 3.36574 13.9423 4.51115 14.0734C5.22021 14.1499 5.92927 14.1499 6.63833 14.1826C7.62011 14.1826 8.59098 14.0843 9.56185 13.9204C9.67093 13.8986 9.81275 13.8876 9.81275 13.7019C9.80184 13.09 9.80184 12.4781 9.80184 11.8662C9.80184 11.7679 9.76911 11.7242 9.67093 11.7351C9.39822 11.757 9.11459 11.757 8.8637 11.8225C8.44917 11.9318 8.03464 11.9646 7.63102 11.9755C6.81287 11.9973 5.99472 12.0192 5.16567 11.9536C4.35843 11.8881 3.55119 11.7679 2.76577 11.5931C1.84944 11.3855 0.976749 11.0686 0.180419 10.5769C0.049515 10.4895 0.0276977 10.5551 0.0276977 10.6752C0.0276977 11.156 0.0276977 11.6258 0.0276977 12.1066C0.0276977 12.194 0.0822409 12.2487 0.114967 12.3142C0.376774 12.7513 0.802211 13.0026 1.22765 13.2102L1.20583 13.1883Z" fill="#9B0000"/>
<path d="M18.3213 7.62665C18.8886 7.60479 19.4558 7.53924 20.0122 7.45182C20.7212 7.34256 21.3975 7.15681 22.0739 6.92735C22.6193 6.7416 23.132 6.47937 23.5793 6.10786C23.9393 5.81285 24.0811 5.32116 23.7211 4.93873C23.3393 4.52352 22.8484 4.28314 22.3466 4.07554C21.703 3.8133 21.0376 3.66033 20.3612 3.50736C20.2194 3.47458 20.0667 3.40902 19.9576 3.41995C19.554 3.47458 19.1722 3.34346 18.7795 3.33254C18.3213 3.31068 17.8632 3.29976 17.405 3.26698C17.2414 3.25605 17.2086 3.33254 17.2414 3.46365C17.3068 3.72589 17.3177 3.99905 17.3614 4.26129C17.4159 4.68742 17.4268 5.11355 17.3832 5.52876C17.3068 6.21713 17.1323 6.88382 16.8268 7.50663C16.805 7.52848 16.7614 7.56109 16.7614 7.58294C16.7614 7.61572 16.7941 7.62665 16.8268 7.58294C17.3177 7.68128 17.8304 7.62665 18.3213 7.61572V7.62665Z" fill="#9B0000"/>
<path d="M23.9627 17.1219C23.9627 17.0236 23.8863 17.0564 23.8209 17.0892C23.6464 17.1984 23.4827 17.3077 23.2973 17.3842C22.7955 17.6136 22.2937 17.8431 21.7592 17.9742C21.1592 18.1162 20.5701 18.2801 19.9483 18.3566C19.5011 18.4113 19.0538 18.5096 18.6066 18.5205C17.4393 18.5424 16.2721 18.5642 15.1049 18.4113C15.0722 18.4113 15.0285 18.4113 14.9958 18.3894C14.9958 18.3894 14.9849 18.3894 14.974 18.3785C14.9522 18.3785 14.9413 18.3566 14.9194 18.3566C14.7122 18.3566 14.5049 18.302 14.2977 18.2692C13.3268 18.1053 12.3886 17.8322 11.505 17.3951C11.3087 17.2968 11.156 17.1219 10.916 17.0782C10.916 17.4607 10.9378 17.8212 10.916 18.1927C10.8833 18.75 11.1123 19.1324 11.5705 19.4274C12.6395 20.1158 13.8395 20.3999 15.0722 20.5856C15.7049 20.684 16.3485 20.7058 17.003 20.7167C17.4393 20.7167 17.8866 20.7386 18.3229 20.7167C18.8902 20.6949 19.4574 20.6403 20.0247 20.531C21.0501 20.3452 22.0755 20.1158 22.9918 19.6022C23.3627 19.3946 23.7663 19.187 23.9082 18.75C24.0718 18.2255 23.9627 17.6683 23.9736 17.1329L23.9627 17.1219Z" fill="#9B0000"/>
<path d="M0.715912 16.1712C1.49042 16.6957 2.37402 16.947 3.25762 17.1437C4.32667 17.3841 5.42844 17.4496 6.51931 17.4387C7.56654 17.4168 8.61377 17.3841 9.63918 17.1546C9.74826 17.1327 9.80281 17.1 9.80281 16.9798C9.80281 16.346 9.80281 15.7232 9.7919 15.0895C9.7919 14.9912 9.77008 14.9474 9.66099 14.9911C9.33374 15.1223 8.98466 15.0239 8.64649 15.1332C8.29741 15.2425 7.8938 15.2425 7.5229 15.2534C6.17023 15.2752 4.81756 15.2534 3.48671 15.0021C2.31948 14.7835 1.19589 14.4667 0.181388 13.8329C0.0286673 13.7346 0.0177587 13.8111 0.0177587 13.9422C0.0177587 14.2481 0.0504846 14.5541 0.0177587 14.86C-0.0586018 15.4719 0.257749 15.8434 0.72682 16.1603L0.715912 16.1712Z" fill="#9B0000"/>
<path d="M11.2432 15.909C11.9086 16.4553 12.705 16.7503 13.5122 16.9907C14.5049 17.2748 15.5412 17.4059 16.5775 17.4496C17.2211 17.4824 17.8757 17.4824 18.5302 17.4168C19.2174 17.3513 19.8938 17.2857 20.5701 17.1546C21.5519 16.9579 22.5009 16.6738 23.3409 16.1166C23.6681 15.898 23.9627 15.6358 23.9736 15.1987C23.9845 14.7835 23.9736 14.3683 23.9736 13.9422C23.9736 13.8001 23.9736 13.7237 23.799 13.8438C23.3082 14.1607 22.7845 14.3792 22.2282 14.565C21.5955 14.7726 20.941 14.9146 20.2865 15.0348C19.5774 15.166 18.8574 15.2424 18.1375 15.2643C17.4393 15.2752 16.7303 15.2971 16.0321 15.2315C15.3449 15.166 14.6576 15.1113 13.9922 14.9584C12.9777 14.7289 11.9741 14.4667 11.0905 13.8876C11.0687 13.8766 11.0578 13.8657 11.0359 13.8548C10.9487 13.7892 10.9269 13.8329 10.9269 13.9203C10.9269 14.3574 10.905 14.7945 10.9269 15.2206C10.9487 15.4828 11.025 15.7451 11.2541 15.9308L11.2432 15.909Z" fill="#9B0000"/>
<path d="M23.7865 20.378C23.3393 20.673 22.8484 20.8915 22.3357 21.0554C21.6812 21.274 21.0048 21.4269 20.3176 21.5471C19.6521 21.6673 18.9867 21.7547 18.3213 21.7766C17.5577 21.7984 16.7941 21.8203 16.0305 21.7438C15.2778 21.6673 14.5142 21.5908 13.7724 21.416C12.8779 21.2084 12.0052 20.9462 11.198 20.4982C11.198 20.4654 11.1761 20.4654 11.1652 20.4982C11.0889 20.4436 11.0125 20.3889 10.9034 20.3015C10.9034 20.8041 10.8816 21.2849 10.9034 21.7547C10.9143 21.9296 10.958 22.1262 11.0998 22.2901C11.3507 22.5742 11.667 22.7928 12.0052 22.9566C12.6488 23.2626 13.3251 23.492 14.0342 23.645C14.9505 23.8417 15.8778 23.951 16.8159 23.9837C18.0704 24.0274 19.314 23.94 20.5576 23.6778C21.5393 23.4702 22.4884 23.197 23.3284 22.6398C23.6556 22.4212 23.9502 22.159 23.9611 21.722C23.9611 21.3067 23.9611 20.8915 23.9611 20.4654C23.9611 20.3124 23.9392 20.2578 23.7756 20.3671L23.7865 20.378Z" fill="#9B0000"/>
<path d="M0.422209 19.2198C0.596747 19.3728 0.804011 19.5039 1.01128 19.6132C2.10214 20.225 3.30209 20.4545 4.51295 20.6184C5.18928 20.7058 5.88744 20.6949 6.45469 20.7277C7.58918 20.6949 8.6146 20.673 9.61819 20.4326C9.74909 20.3999 9.81455 20.3671 9.81455 20.225C9.81455 19.6241 9.80364 19.0341 9.81455 18.4331C9.81455 18.3129 9.77091 18.2583 9.65092 18.2801C9.40002 18.3238 9.11639 18.291 8.89822 18.3566C8.4946 18.4768 8.08007 18.4987 7.68736 18.5205C6.57468 18.5642 5.45109 18.5642 4.34932 18.4222C3.8148 18.3566 3.28027 18.2583 2.74575 18.1272C1.85124 17.8977 0.989458 17.6027 0.204036 17.111C0.0731325 17.0236 0.029498 17.0564 0.029498 17.2093C0.029498 17.5699 0.0513153 17.9414 0.029498 18.302C-0.00322794 18.6953 0.17131 18.9794 0.444026 19.2089L0.422209 19.2198Z" fill="#9B0000"/>
<path d="M9.80309 21.6344C9.80309 21.536 9.77036 21.5142 9.67218 21.536C8.96312 21.6781 8.24315 21.7655 7.52318 21.7983C6.10506 21.842 4.68693 21.7983 3.29063 21.5142C2.19976 21.2847 1.15254 20.9788 0.203484 20.3997C0.0398545 20.3013 0.0180372 20.3669 0.0289459 20.5089C0.0289459 20.8586 0.0507631 21.2082 0.0289459 21.5579C-0.00378004 22.0168 0.203484 22.3337 0.552561 22.5959C1.04345 22.9565 1.59979 23.1969 2.17795 23.3935C3.127 23.7104 4.10878 23.8962 5.10146 23.9508C6.45413 24.0273 7.8068 24.0382 9.15948 23.8087C9.68309 23.7213 10.2067 23.6339 10.7194 23.4372C10.1631 22.9456 9.78127 22.3992 9.81399 21.6453L9.80309 21.6344Z" fill="#9B0000"/>
</g>
<defs>
<clipPath id="clip0_1463_12424">
<rect width="24" height="24" fill="white"/>
</clipPath>
</defs>
</svg>
