<svg width="24" height="24" viewBox="0 0 24 24" fill="none" xmlns="http://www.w3.org/2000/svg">
<g clip-path="url(#clip0_1463_12136)">
<path d="M23.9249 12.5312C23.7849 12.941 23.605 13.3208 23.2752 13.6207C22.8554 14.0005 22.3656 14.2104 21.7959 14.2204C21.6759 14.2204 21.566 14.2204 21.4061 14.2204C21.4061 14.3204 21.4061 14.4103 21.4061 14.5003C21.4061 16.7892 21.4061 19.0881 21.4061 21.377C21.4061 22.6264 20.6064 23.6459 19.407 23.9257C19.1971 23.9757 18.9772 23.9957 18.7573 23.9957C17.5379 23.9957 16.3285 23.9957 15.1091 23.9957C14.5793 23.9957 14.2995 23.7158 14.2995 23.1861C14.2995 21.397 14.2795 19.5978 14.2995 17.8087C14.3095 17.0291 13.7797 16.4393 12.9401 16.4693C12.2904 16.4893 11.6308 16.4693 10.9711 16.4693C10.1515 16.4693 9.6817 16.9491 9.6817 17.7687C9.6817 19.5578 9.6817 21.337 9.6817 23.1261C9.6817 23.7358 9.42183 23.9957 8.81212 23.9957C7.62269 23.9957 6.44326 23.9957 5.25383 23.9957C3.68459 23.9957 2.57512 22.8862 2.57512 21.317C2.57512 19.0581 2.57512 16.7992 2.57512 14.5403V14.2504C2.30525 14.2304 2.05537 14.2304 1.80549 14.1804C0.975891 14.0205 0.39617 13.5207 0.1263 12.7211C-0.14357 11.9315 0.0263484 11.2019 0.566089 10.5622C0.636055 10.4822 0.716017 10.4022 0.795978 10.3223C3.84451 7.26375 6.89304 4.22521 9.94158 1.16668C10.3814 0.726896 10.8012 0.237132 11.4309 0.0872042C11.8107 -0.00275254 12.0406 -0.0527285 12.5503 0.0872042C13.14 0.277113 13.5598 0.696911 13.9896 1.1267C16.9882 4.13526 19.9867 7.13381 22.9953 10.1324C23.3951 10.5322 23.7649 10.942 23.9249 11.5117C24.0148 11.8316 24.0348 12.2114 23.9249 12.5412V12.5312ZM15.6988 22.5864C15.8088 22.5864 15.8887 22.5864 15.9787 22.5864C16.8782 22.5864 17.7778 22.5564 18.6674 22.5864C19.427 22.6164 20.0167 22.0766 20.0167 21.237C19.9867 18.7082 20.0167 16.1895 20.0167 13.6607C20.0167 13.071 20.2866 12.8111 20.8763 12.8111C21.1862 12.8111 21.496 12.8111 21.8159 12.8111C22.1657 12.8111 22.4556 12.5712 22.5555 12.2314C22.6655 11.8415 22.4755 11.5617 22.2157 11.3018C19.0472 8.14333 15.8887 4.97485 12.7202 1.81637C12.2205 1.31661 11.8107 1.31661 11.3209 1.81637C8.50227 4.63502 5.67363 7.46365 2.85499 10.2823C2.46517 10.6721 2.06537 11.0619 1.68555 11.4617C1.43567 11.7116 1.3757 12.0215 1.51563 12.3413C1.65556 12.6512 1.90544 12.8111 2.25528 12.8211C2.54514 12.8211 2.835 12.8211 3.12486 12.8211C3.76455 12.8211 4.01443 13.071 4.01443 13.7106C4.01443 16.2494 4.01443 18.7882 4.01443 21.337C4.01443 22.1066 4.50419 22.5964 5.26383 22.5964C6.20338 22.5964 7.13293 22.5964 8.07248 22.5964C8.14244 22.5964 8.22241 22.5964 8.31236 22.5864C8.31236 22.4764 8.31236 22.3765 8.31236 22.2865C8.31236 20.7073 8.30237 19.118 8.32236 17.5388C8.34235 16.2994 9.34187 15.1999 10.5913 15.12C11.5408 15.06 12.5103 15.11 13.4699 15.12C13.5398 15.12 13.6098 15.14 13.6798 15.15C14.9092 15.4198 15.7188 16.4293 15.7288 17.6987C15.7288 19.238 15.7288 20.7673 15.7288 22.3065C15.7288 22.3965 15.7288 22.4864 15.7288 22.6064L15.6988 22.5864Z" fill="#6A6A6A"/>
</g>
<defs>
<clipPath id="clip0_1463_12136">
<rect width="24" height="23.9957" fill="white"/>
</clipPath>
</defs>
</svg>
