<svg width="24" height="24" viewBox="0 0 24 24" fill="none" xmlns="http://www.w3.org/2000/svg">
<path d="M16.1927 23.9887C16.3173 23.9887 16.4079 23.9887 16.5099 23.9887C17.5294 23.9887 18.549 23.9546 19.5572 23.9887C20.4182 24.0227 21.0865 23.4103 21.0865 22.4578C21.0525 19.5889 21.0865 16.7314 21.0865 13.8625C21.0865 13.1935 21.3924 12.8987 22.0608 12.8987C22.4119 12.8987 22.7631 12.8987 23.1256 12.8987C23.5221 12.8987 23.8506 12.6265 23.9639 12.241C24.0885 11.7987 23.8733 11.4812 23.5788 11.1864C19.965 7.60312 16.3853 4.0085 12.7942 0.42523C12.2278 -0.141743 11.7633 -0.141743 11.2082 0.42523C8.00228 3.61162 4.80768 6.82069 1.60176 10.0184C1.15995 10.4607 0.706815 10.9029 0.276338 11.3565C-0.00687125 11.64 -0.0748414 11.9915 0.0837556 12.3544C0.242353 12.7059 0.525562 12.8873 0.922054 12.8987C1.25058 12.8987 1.5791 12.8987 1.90762 12.8987C2.63264 12.8987 2.91584 13.1821 2.91584 13.9079C2.91584 16.7881 2.91584 19.6683 2.91584 22.5599C2.91584 23.433 3.47093 23.9887 4.33189 23.9887C5.39675 23.9887 6.45029 23.9887 7.51516 23.9887C7.59446 23.9887 7.68508 23.9887 7.78704 23.9773C7.78704 23.8526 7.78704 23.7392 7.78704 23.6371C7.78704 21.8455 7.77571 20.0425 7.79837 18.2509C7.82102 16.8448 8.95386 15.5974 10.3699 15.5067C11.4461 15.4387 12.5449 15.4954 13.6325 15.5067C13.7118 15.5067 13.7911 15.5294 13.8704 15.5408C15.2638 15.8469 16.1813 16.9922 16.1927 18.4323C16.1927 20.1786 16.1927 21.9135 16.1927 23.6598C16.1927 23.7619 16.1927 23.8639 16.1927 24V23.9887Z" fill="#9B0000"/>
</svg>
