<svg width="24" height="24" viewBox="0 0 24 24" fill="none" xmlns="http://www.w3.org/2000/svg">
<g clip-path="url(#clip0_1463_12401)">
<path d="M23.9697 13.9918C23.9046 13.7159 23.7198 13.4952 23.4591 13.4069C23.1766 13.3076 22.8506 13.3628 22.5898 13.5725C22.0574 14.0028 21.5141 14.4442 20.9817 14.8856L19.7104 15.9338C19.1236 16.4083 18.5478 16.8938 17.961 17.3683C17.8741 17.4345 17.8741 17.4566 17.885 17.5338C17.9501 18.1738 17.7763 18.7697 17.3851 19.2C16.9722 19.6635 16.3746 19.9173 15.6901 19.9173C14.0711 19.9173 12.463 19.9173 10.8548 19.9173H9.4097C8.82295 19.9173 8.6165 19.5642 8.60564 19.2442C8.60564 19.0566 8.65997 18.88 8.77949 18.7586C8.92074 18.6152 9.13806 18.5269 9.4097 18.5269H15.6683C16.1138 18.5269 16.4181 18.3173 16.4941 17.9531C16.5376 17.7435 16.4833 17.5228 16.342 17.3573C16.1899 17.1807 15.9726 17.0814 15.7009 17.0814C15.5706 17.0814 15.5054 17.0814 15.3967 17.0814C14.886 17.0814 14.3753 17.0814 13.8646 17.0814C13.5169 17.0814 13.1692 17.0814 12.8215 17.0814C11.9305 17.0814 11.1917 16.7945 10.5832 16.1986C10.116 15.7352 9.59442 15.4924 9.0294 15.4814C8.20361 15.4593 7.1279 15.4483 6.0196 15.4924C5.259 15.5255 4.5636 15.8566 3.96598 16.4745C3.27058 17.1917 2.56431 17.92 1.8689 18.6373L0.673674 19.8731C0.510688 20.0497 0.358568 20.1159 0.217314 20.16C0.162986 20.2483 0.0977914 20.3145 0 20.3586L4.74831 24H4.8787C4.8787 24 4.8787 24 4.8787 23.989C5.36766 23.4483 5.93268 22.8414 6.8128 22.6759C7.08444 22.6207 7.34522 22.5986 7.60599 22.5986C10.0508 22.5986 12.4956 22.5986 14.9403 22.5986H14.9512C15.451 22.5986 15.8422 22.4331 16.2116 22.08C18.689 19.6524 21.1773 17.2359 23.6655 14.8304C23.948 14.5545 24.0458 14.3007 23.9806 14.0138L23.9697 13.9918Z" fill="#9B0000"/>
<path d="M19.8086 1.86482C18.5699 0.662066 16.9183 0 15.1581 0H15.1472C11.5289 0 8.58433 2.86895 8.58433 6.38894C8.58433 8.05514 9.23628 9.62203 10.4206 10.8248C11.6702 12.0937 13.3544 12.8 15.1581 12.8C16.9727 12.8 18.6568 12.0937 19.9064 10.8248C21.0908 9.62203 21.7318 8.05514 21.7318 6.38894C21.7318 4.6786 21.0473 3.07861 19.7977 1.86482H19.8086ZM13.9846 8.58479C13.4956 9.15859 12.659 9.26893 12.094 8.83859C11.8332 8.63997 11.768 8.34204 11.931 8.11031C12.094 7.86756 12.3656 7.82342 12.659 7.99997C12.8872 8.14342 13.0936 8.11031 13.2566 7.90066C13.4087 7.691 13.387 7.51445 13.1805 7.31583C12.898 7.05101 12.6155 6.78618 12.333 6.53239C11.8658 6.10205 11.7245 5.53929 11.9418 4.9655C12.1592 4.39171 12.6916 4.01654 13.2892 4.0055C13.3 4.0055 13.3109 4.0055 13.3218 4.0055C13.3218 4.0055 13.3326 4.0055 13.3435 4.0055C13.3435 4.0055 13.3435 4.0055 13.3544 4.0055C13.3544 4.0055 13.3761 4.0055 13.387 4.0055C13.387 4.0055 13.3978 4.0055 13.4087 4.0055C13.4196 4.0055 13.4413 4.0055 13.4522 4.0055C13.4848 4.01654 13.5174 4.02757 13.5608 4.02757C13.5826 4.02757 13.6043 4.03861 13.626 4.04964C13.789 4.11585 13.9629 4.18205 14.115 4.28136C14.3758 4.44688 14.4083 4.75584 14.2454 4.98757C14.0824 5.21929 13.7999 5.27446 13.5391 5.09791C13.3326 4.95446 13.1479 4.97653 12.9741 5.14205C12.7894 5.3186 12.7894 5.56136 12.9741 5.73791C13.3 6.04687 13.6369 6.33377 13.9411 6.65377C14.4518 7.17239 14.4518 7.98893 13.9629 8.56273L13.9846 8.58479ZM17.3204 4.33653C17.0704 5.20826 16.7988 6.07998 16.538 6.9517C16.3859 7.44825 16.2447 7.93376 16.0925 8.43031C16.0273 8.63997 15.9187 8.81652 15.6796 8.84962C15.3645 8.90479 15.0929 8.67307 15.0929 8.30893C15.0929 8.27583 15.1146 8.19859 15.1364 8.12135C15.5384 6.78618 15.9404 5.43998 16.3424 4.10481C16.3424 4.08274 16.3533 4.06067 16.3642 4.02757C16.4728 3.75171 16.7119 3.60826 16.9727 3.6855C17.2443 3.76274 17.3964 4.01654 17.3095 4.3255L17.3204 4.33653ZM17.9832 8.651C17.7115 8.651 17.4833 8.44135 17.4833 8.16549C17.4833 7.88962 17.7115 7.64687 17.994 7.64687C18.2657 7.64687 18.483 7.87859 18.483 8.15445C18.483 8.44135 18.2765 8.651 17.994 8.651H17.9832Z" fill="#9B0000"/>
</g>
<defs>
<clipPath id="clip0_1463_12401">
<rect width="24" height="24" fill="white"/>
</clipPath>
</defs>
</svg>
