<svg width="24" height="24" viewBox="0 0 24 24" fill="none" xmlns="http://www.w3.org/2000/svg">
<g clip-path="url(#clip0_1463_12395)">
<path d="M22.8596 12.3256C22.0893 11.9549 21.339 12.035 20.6687 12.5461C20.0885 12.997 19.5183 13.458 18.958 13.919L16.4271 15.9632C15.8869 15.5023 15.2266 15.4722 14.6364 15.4822C14.3262 15.4822 14.0161 15.4822 13.706 15.4822C13.3159 15.4822 12.9157 15.4822 12.5255 15.4822C11.9953 15.5023 11.5752 15.3419 11.215 14.9812C10.6048 14.3799 9.8445 14.0592 9.00418 14.0292C7.91375 13.9991 7.0134 13.9991 6.16307 14.0292C5.09266 14.0693 4.15229 14.5002 3.36199 15.2918C2.6217 16.0334 1.89142 16.7749 1.16113 17.5265L0.310802 18.3983C0.0907161 18.6188 -0.00932274 18.8192 0.000681146 19.0196C0.000681146 19.1799 0.0807122 19.3202 0.220767 19.4405C0.400837 19.5908 0.760976 19.7712 1.25117 19.2701L2.35159 18.1478C2.99184 17.4964 3.6421 16.835 4.28234 16.1837C4.83256 15.6225 5.47281 15.3219 6.17308 15.2918C7.19347 15.2517 8.18386 15.2618 8.94415 15.2818C9.47436 15.2918 9.95455 15.5123 10.3747 15.9332C10.9249 16.4843 11.6152 16.7348 12.4355 16.7348C12.7556 16.7348 13.0758 16.7348 13.3959 16.7348C13.8661 16.7348 14.3362 16.7348 14.8064 16.7348C14.8965 16.7348 14.9665 16.7348 15.0865 16.7348C15.3266 16.7348 15.5367 16.825 15.6768 16.9854C15.7968 17.1357 15.8568 17.3361 15.8168 17.5265C15.7568 17.8472 15.4667 18.0476 15.0565 18.0476H9.29429C9.04419 18.0476 8.85412 18.1177 8.71407 18.258C8.60402 18.3682 8.544 18.5286 8.554 18.6989C8.554 18.9996 8.75408 19.3102 9.29429 19.3102H10.6248C12.1054 19.3102 13.596 19.3102 15.0765 19.3102C15.7068 19.3102 16.267 19.0797 16.6371 18.6588C16.9973 18.258 17.1573 17.7269 17.0973 17.1457C17.0973 17.0755 17.0973 17.0555 17.1673 16.9954C17.7076 16.5645 18.2378 16.1336 18.778 15.6927L19.9484 14.7407C20.4386 14.3398 20.9288 13.939 21.429 13.5482C21.6691 13.3578 21.9692 13.3077 22.2293 13.3979C22.4694 13.4881 22.6395 13.6785 22.6995 13.929C22.7595 14.1895 22.6695 14.42 22.4094 14.6705C20.1185 16.8651 17.8376 19.0597 15.5467 21.2543C15.2166 21.5749 14.8464 21.7253 14.3863 21.7253H14.3763C12.1254 21.7253 9.87452 21.7253 7.62364 21.7253C7.38355 21.7253 7.14346 21.7453 6.89336 21.7954C6.08304 21.9457 5.57285 22.5069 5.11267 22.9879C4.90259 23.2184 4.92259 23.5791 5.16269 23.8096C5.29274 23.9399 5.4528 24 5.61286 24C5.75292 24 5.88297 23.9499 6.00301 23.8597C6.14307 23.7495 6.29313 23.6192 6.44318 23.4589C6.7533 23.1282 7.13345 22.9779 7.63365 22.9779C8.72407 22.9779 9.81449 22.9779 10.9149 22.9779C12.0554 22.9779 13.1758 22.9779 14.3162 22.9779H14.3362C15.1666 22.9779 15.8568 22.6973 16.4471 22.1261C17.9577 20.663 19.4782 19.21 20.9988 17.757L22.8295 16.0033C23.0196 15.8229 23.2097 15.6426 23.3998 15.4622C23.7999 15.0714 24 14.6204 24 14.0993C24 13.2676 23.5998 12.6463 22.8496 12.2855L22.8596 12.3256Z" fill="#6A6A6A"/>
<path d="M14.577 14.1495C14.9371 14.1495 15.2973 14.1295 15.6674 14.0694C18.9487 13.5984 21.5097 11.0431 21.8998 7.8564C22.31 4.41923 20.0991 1.23257 16.6378 0.280586C16.3077 0.190398 15.9775 0.130272 15.6474 0.0801674C15.4973 0.0501046 15.3473 0.0300628 15.1972 0H13.8967C13.8067 0.0300628 13.7267 0.0400837 13.6366 0.0501046C11.6258 0.300628 9.86515 1.31274 8.65468 2.88603C7.51424 4.37914 7.02405 6.21297 7.29415 8.0468C7.80435 11.5942 10.9556 14.1495 14.577 14.1495ZM8.52463 7.06475C8.52463 3.86808 11.2357 1.26264 14.567 1.26264H14.577C16.1976 1.26264 17.7182 1.86389 18.8586 2.95617C19.9991 4.04845 20.6293 5.51151 20.6393 7.06475C20.6393 8.56789 20.0491 10.0009 18.9587 11.0932C17.8082 12.2456 16.2476 12.8869 14.587 12.8869C12.9263 12.8869 11.3757 12.2556 10.2253 11.0932C9.13487 10.0009 8.53463 8.57791 8.53463 7.06475H8.52463Z" fill="#6A6A6A"/>
<path d="M13.4858 7.32521C13.1957 7.0346 12.8856 6.77406 12.5955 6.49347C12.4254 6.33314 12.4254 6.11268 12.5955 5.95234C12.7556 5.80203 12.9256 5.78199 13.1157 5.91226C13.3558 6.07259 13.6159 6.02249 13.766 5.81205C13.916 5.60161 13.886 5.32102 13.6459 5.17071C13.5059 5.08052 13.3558 5.0204 13.1957 4.96027C13.1757 4.96027 13.1557 4.96027 13.1357 4.94023C13.1057 4.94023 13.0657 4.93021 13.0357 4.92019C13.0257 4.92019 13.0057 4.92019 12.9957 4.92019C12.9957 4.92019 12.9857 4.92019 12.9756 4.92019C12.9756 4.92019 12.9556 4.92019 12.9456 4.92019C12.9456 4.92019 12.9456 4.92019 12.9356 4.92019C12.9356 4.92019 12.9256 4.92019 12.9156 4.92019C12.9056 4.92019 12.8956 4.92019 12.8856 4.92019C12.3354 4.92019 11.8452 5.2609 11.6451 5.79201C11.4451 6.31309 11.5751 6.81414 12.0053 7.21498C12.2654 7.45548 12.5255 7.68596 12.7856 7.92646C12.9756 8.09682 12.9957 8.26717 12.8556 8.45757C12.7155 8.64797 12.5155 8.67803 12.3054 8.54776C12.0453 8.38743 11.7852 8.42751 11.6351 8.64797C11.4851 8.86843 11.5451 9.139 11.7852 9.30935C12.3054 9.70017 13.0757 9.59996 13.5259 9.07887C13.976 8.55778 13.976 7.80621 13.5059 7.34525L13.4858 7.32521Z" fill="#6A6A6A"/>
<path d="M15.0671 9.29942C15.2872 9.25933 15.3872 9.10902 15.4472 8.91862C15.5873 8.46768 15.7174 8.02676 15.8574 7.57582C16.0975 6.78416 16.3376 5.99251 16.5777 5.20086C16.6577 4.93029 16.5177 4.69981 16.2676 4.61965C16.0275 4.5495 15.7974 4.66975 15.7073 4.93029C15.7073 4.95034 15.6973 4.97038 15.6873 5.00044C15.3172 6.21297 14.9471 7.43553 14.5769 8.64806C14.5569 8.7182 14.5469 8.77833 14.5369 8.81841C14.5369 9.1491 14.787 9.35954 15.0771 9.30944L15.0671 9.29942Z" fill="#6A6A6A"/>
<path d="M17.1876 9.11898C17.4477 9.11898 17.6378 8.91856 17.6378 8.66804C17.6378 8.41752 17.4377 8.20708 17.1876 8.20708C16.9275 8.20708 16.7174 8.41752 16.7174 8.67806C16.7174 8.92859 16.9275 9.129 17.1776 9.11898H17.1876Z" fill="#6A6A6A"/>
</g>
<defs>
<clipPath id="clip0_1463_12395">
<rect width="24" height="24" fill="white"/>
</clipPath>
</defs>
</svg>
