<svg width="24" height="24" viewBox="0 0 24 24" fill="none" xmlns="http://www.w3.org/2000/svg">
<path d="M23.8499 4.41146C23.7298 4.24616 23.5596 4.16837 23.2994 4.18782H23.1793C22.6589 4.20726 22.1284 4.23644 21.598 4.28505C19.9666 4.44063 18.6355 4.78096 17.4345 5.33521C17.0342 5.51996 16.9041 5.69498 16.8841 6.14227C16.854 6.13255 16.824 6.12282 16.794 6.10338L16.1935 5.81167C15.563 5.50051 14.9324 5.19908 14.3019 4.8782C13.7815 4.61566 13.211 4.35312 12.5905 4.27533C11.7398 4.16837 10.9291 4.47953 10.0684 5.22825C9.97831 5.30604 9.84821 5.36438 9.74812 5.36438C8.80734 5.36438 7.87656 5.36438 6.93578 5.36438H6.09508C6.09508 5.30604 6.09508 5.24769 6.1151 5.19908C6.20517 4.74206 6.05505 4.37257 5.71476 4.16837C5.49458 4.03224 5.23436 3.88638 4.95413 3.77942C3.50292 3.25435 1.98165 3.11822 0.630525 3.00153C0.3603 2.98209 0.150125 3.14739 0 3.51689V14.5921V14.631C0.130108 14.8644 0.30025 15.088 0.590492 15.088C1.22102 15.088 1.84153 15.088 2.47206 15.088H3.54295C3.82319 15.088 4.02335 14.913 4.12344 14.5727C4.14345 14.5046 4.16347 14.4463 4.17348 14.3879C4.3236 14.5629 4.47373 14.738 4.62385 14.913C5.03419 15.3992 5.41451 15.8562 5.84487 16.2743C6.73561 17.1494 7.65638 17.9954 8.54712 18.8219C8.8774 19.1233 9.20767 19.4345 9.53795 19.7359C9.97831 20.1443 10.5188 20.6013 11.1793 20.825C11.4395 20.9125 11.7398 21 12.0601 21C12.4003 21 12.7606 20.9125 13.1109 20.6402C13.1209 20.6402 13.161 20.6208 13.181 20.6402C13.9116 20.9417 14.8123 20.4846 15.2727 19.5706C15.3128 19.4928 15.3428 19.4831 15.4429 19.4831C16.2936 19.5415 16.9441 19.1525 17.3745 18.3163C17.3945 18.2774 17.4646 18.219 17.5046 18.219C18.045 18.1704 18.5354 17.8301 18.8457 17.2953C19.0859 16.8869 19.196 16.391 19.146 15.9145C19.146 15.8951 19.146 15.8659 19.146 15.8562C19.3261 15.7006 19.5063 15.5548 19.6964 15.4089L19.7465 15.37L19.8065 15.5937C19.9366 16.1187 20.1168 16.2743 20.5771 16.2743C21.4879 16.2743 22.3887 16.2743 23.2994 16.2743C23.7598 16.2743 24 15.9923 24 15.4284C24 11.957 24 8.49539 24 5.02405C24 4.76151 23.95 4.55732 23.8399 4.42118L23.8499 4.41146ZM20.1068 12.2001C19.7264 10.9263 19.3561 9.66223 18.9758 8.38843C18.8357 7.91197 18.6756 7.45496 18.5054 6.9785C18.4454 6.8132 18.3853 6.6479 18.3353 6.4826C19.6764 5.97697 21.1476 5.70471 22.819 5.64636V14.806H22.4887C21.9583 14.806 21.4379 14.806 20.9374 14.806C20.9174 14.806 20.8774 14.7282 20.8574 14.6796C20.6072 13.8628 20.367 13.0363 20.1268 12.2098L20.1068 12.2001ZM14.452 13.3183C14.1618 12.978 13.8115 12.9488 13.5613 13.2503C13.4412 13.3961 13.3812 13.5614 13.3812 13.7462C13.3812 13.9504 13.4612 14.1546 13.6013 14.3296C14.4721 15.3797 15.3428 16.4299 16.2135 17.48C16.2936 17.587 16.3136 17.6162 16.3136 17.6259C16.3136 17.6259 16.3036 17.6648 16.2135 17.762C15.9033 18.1024 15.5029 18.1121 15.2127 17.7912C14.6922 17.1883 14.1718 16.5563 13.6614 15.9534L13.0609 15.2339L13.0008 15.1561C12.9508 15.088 12.9008 15.0297 12.8407 14.9713C12.6205 14.7574 12.3002 14.7671 12.0801 15.0005C11.8499 15.2436 11.8098 15.6325 11.98 15.9437C12.03 16.0312 12.0901 16.109 12.1401 16.1771C12.8107 16.9841 13.4712 17.7912 14.1418 18.5983L14.2819 18.7733C14.2819 18.7733 14.2419 18.8219 14.2118 18.8511C14.1018 18.9775 14.0017 19.0942 13.8916 19.1817C13.7014 19.3275 13.5113 19.2984 13.3411 19.1136L11.0792 16.4493C11.0792 16.4493 11.0292 16.391 11.0092 16.3618C10.9691 16.3132 10.9291 16.2549 10.8891 16.216C10.6589 15.9632 10.3186 15.9534 10.0884 16.1965C9.96831 16.3327 9.89825 16.5077 9.88824 16.7021C9.88824 16.8869 9.93828 17.0716 10.0384 17.2175C10.2185 17.4606 10.4187 17.7134 10.6489 17.9954C10.9892 18.3941 11.3394 18.7927 11.6897 19.1914L12 19.5512C12 19.5512 12 19.5512 11.99 19.5512C11.8799 19.5512 11.7798 19.5512 11.6997 19.5123C11.6297 19.4831 11.5596 19.4539 11.4896 19.415C11.2093 19.2984 10.9191 19.172 10.6989 18.9678C9.37781 17.7815 7.85655 16.4007 6.39533 14.9713C5.91493 14.5046 5.48457 13.9406 5.05421 13.4058C4.90409 13.2211 4.76397 13.0363 4.61384 12.8516C4.60384 12.8321 4.59383 12.7349 4.61384 12.6474C4.81401 11.7236 5.02419 10.7999 5.23436 9.88587C5.39449 9.17605 5.55463 8.47594 5.70475 7.76612C5.7548 7.54247 5.79483 7.31883 5.83486 7.08546C5.84487 7.00767 5.86489 6.92989 5.8749 6.8521H8.57715C8.57715 6.8521 8.56714 6.87154 8.55713 6.87154C8.10676 7.50358 7.5663 8.37871 7.37615 9.4872C7.206 10.5179 7.60634 11.2958 8.43703 11.5681C9.46789 11.9084 10.3486 11.5778 11.0892 10.6054C11.2494 10.4012 11.3795 10.2943 11.5696 10.2456C11.7098 10.2068 11.8399 10.1387 11.97 10.0706C12.05 10.022 12.1401 9.98311 12.2302 9.94422C12.2802 9.92477 12.3503 9.93449 12.3603 9.94422L12.6005 10.1873C13.9116 11.4903 15.2727 12.8321 16.5938 14.174C16.8941 14.4754 17.1643 14.8352 17.4245 15.1755L17.6247 15.4284C17.7148 15.545 17.7948 15.6909 17.8749 15.8756C17.9349 16.0312 17.945 16.1965 17.9049 16.3424C17.8449 16.5174 17.7148 16.6633 17.5346 16.7216C17.3945 16.7702 17.2744 16.7216 17.1643 16.5952C16.854 16.216 16.5338 15.8465 16.2135 15.4672C15.8532 15.0394 15.4829 14.6018 15.1226 14.1643C15.0025 14.0184 14.8724 13.8628 14.7523 13.717C14.6422 13.5809 14.5321 13.4447 14.422 13.3183H14.452ZM12.4804 8.33009C12.3903 8.33009 12.3002 8.34954 12.2102 8.38843C12.01 8.47594 11.8098 8.55373 11.6097 8.63152C11.3495 8.72876 11.0892 8.83572 10.829 8.9524C10.6689 9.02047 10.5488 9.19549 10.4287 9.3608C10.1685 9.74974 9.84821 10.1776 9.34779 10.2165C9.12761 10.2262 8.90742 10.1679 8.66722 10.0998C8.60717 10.0803 8.57715 10.0512 8.55713 10.0026C8.53711 9.95394 8.53711 9.86643 8.55713 9.78864L8.59716 9.65251C8.70726 9.28301 8.81735 8.90378 8.98749 8.5829C9.48791 7.62999 10.1985 6.82293 11.1393 6.10338C11.7898 5.60747 12.5004 5.5783 13.4012 6.00614C14.7523 6.6479 16.1034 7.28966 17.4445 7.95087C17.4946 7.98004 17.5446 8.0481 17.5646 8.09672C17.9349 9.28301 18.2952 10.479 18.6656 11.6653L19.3361 13.8531C19.3561 13.9115 19.3561 13.9309 19.3561 13.9309C19.3561 13.9309 19.3561 13.9504 19.3061 13.9795C19.1159 14.1254 18.9358 14.2712 18.7356 14.4268L18.5955 14.5338C17.6547 13.2405 16.5338 12.1612 15.4529 11.1208C15.0926 10.7804 14.7323 10.4304 14.382 10.0803C13.9416 9.64278 13.4712 9.14688 12.9308 8.57318C12.7807 8.40788 12.6205 8.33009 12.4504 8.33009H12.4804ZM4.91409 5.27687C4.53378 8.11617 3.83319 10.8777 3.15263 13.542L3.13261 13.61H1.18098V4.5087H1.201C2.48207 4.66428 3.70309 4.80041 4.91409 5.27687Z" fill="#6A6A6A"/>
</svg>
