<svg width="24" height="24" viewBox="0 0 24 24" fill="none" xmlns="http://www.w3.org/2000/svg">
<path d="M21.0236 12.2842C20.6016 10.7566 20.1795 9.21711 19.7464 7.68947C19.5909 7.13289 19.4132 6.58816 19.2244 6.01974C19.1578 5.80658 19.0801 5.58158 19.0134 5.35658C20.5127 4.75263 22.1453 4.42105 24 4.35V15.3395H23.6557C23.0449 15.3395 22.4785 15.3395 21.9232 15.3395C21.901 15.3276 21.8454 15.2447 21.8232 15.1618C21.5567 14.2026 21.2901 13.2434 21.0236 12.2842ZM14.7376 13.575C14.571 13.3618 14.3711 13.2434 14.1823 13.2434C14.0157 13.2434 13.8602 13.3263 13.727 13.5039C13.4604 13.8474 13.4826 14.3211 13.7714 14.7C14.7376 15.9553 15.7038 17.1987 16.6701 18.4421C16.8366 18.6553 16.8366 18.6789 16.6701 18.8684C16.5035 19.0697 16.3036 19.1763 16.1037 19.1763C15.9149 19.1763 15.7483 19.0816 15.5928 18.9039C15.0375 18.2171 14.4711 17.4947 13.938 16.7961C13.6937 16.4882 13.4493 16.1684 13.205 15.8605C13.1828 15.825 13.1606 15.7895 13.1273 15.7658C13.0717 15.6947 13.0162 15.6118 12.9607 15.5526C12.8385 15.4342 12.6941 15.3632 12.5386 15.3632H12.5275C12.372 15.3632 12.2166 15.4461 12.0944 15.5882C11.8612 15.8605 11.8168 16.2868 11.9944 16.6184C12.05 16.725 12.1166 16.8079 12.1721 16.8908L14.5266 19.9461C14.5266 19.9461 14.5488 19.9816 14.571 20.0053V20.0289C14.571 20.0289 14.5155 20.1118 14.4822 20.1592C14.36 20.3132 14.249 20.4553 14.1157 20.5618C13.9047 20.7276 13.7159 20.7039 13.5382 20.4789C12.7052 19.425 11.8612 18.3592 11.0282 17.3053C10.9949 17.2697 10.9727 17.2342 10.9394 17.1987C10.895 17.1395 10.8505 17.0803 10.8061 17.0211C10.6728 16.8671 10.5062 16.7842 10.3397 16.7842C10.1731 16.7842 10.0176 16.8553 9.89542 16.9974C9.62887 17.3053 9.60666 17.7789 9.83989 18.1224C10.0398 18.4184 10.2619 18.7263 10.5174 19.0461C10.895 19.5197 11.2726 19.9816 11.6502 20.4553L12.0944 21C12.0944 21 12.05 21 12.0278 21C11.9167 21 11.8056 21 11.7168 20.9526C11.6391 20.9171 11.5613 20.8816 11.4836 20.8461C11.1726 20.7039 10.8505 20.5618 10.6062 20.3132C9.15132 18.9158 7.46321 17.2697 5.83063 15.5526C5.29755 14.9961 4.81999 14.3329 4.35354 13.7053C4.18695 13.4803 4.02036 13.2553 3.85377 13.0303C3.83156 12.9947 3.82045 12.8526 3.85377 12.7224C4.07589 11.6329 4.30912 10.5434 4.53124 9.45395C4.70893 8.61316 4.88663 7.76053 5.06432 6.91974C5.11985 6.64737 5.16428 6.375 5.2087 6.07895C5.21981 5.98421 5.24202 5.90132 5.25312 5.80658H8.29616L8.21842 5.925C7.71865 6.67105 7.11893 7.70132 6.91902 9.01579C6.74132 10.2118 7.17446 11.1118 8.09625 11.4316C9.24017 11.8342 10.2397 11.4434 11.0615 10.2829C11.2392 10.0342 11.3836 9.91579 11.5835 9.85658C11.739 9.80921 11.8945 9.72632 12.0389 9.64342C12.1277 9.59605 12.2277 9.53684 12.3165 9.50132C12.3609 9.47763 12.4276 9.50132 12.4387 9.50132L12.7608 9.84474C14.2045 11.3724 15.6927 12.9592 17.1365 14.5461C17.4697 14.9132 17.7696 15.3276 18.0694 15.7421L18.2915 16.0382C18.3915 16.1803 18.4803 16.3579 18.5692 16.5829C18.658 16.8197 18.658 17.0803 18.5692 17.2934C18.4914 17.4711 18.3582 17.6132 18.1805 17.6724C18.025 17.7316 17.9139 17.6724 17.7918 17.5184C17.4142 17.0329 17.0366 16.5592 16.659 16.0737C16.2814 15.5882 15.9037 15.1145 15.5261 14.6289C15.3929 14.4513 15.2596 14.2855 15.1263 14.1079C15.0042 13.9421 14.882 13.7763 14.7487 13.6105L14.7376 13.575ZM12.5386 7.64211C12.4387 7.64211 12.3387 7.66579 12.2277 7.71316C12.0056 7.81974 11.7834 7.90263 11.5613 7.99737C11.2726 8.11579 10.9838 8.23421 10.695 8.37632C10.5174 8.45921 10.3841 8.66053 10.2508 8.86184C9.88431 9.44211 9.55113 9.83289 9.06247 9.88026C8.82925 9.90395 8.57381 9.83289 8.31837 9.75C8.25173 9.72632 8.20731 9.67895 8.1851 9.59605C8.16289 9.51316 8.17399 9.40658 8.20731 9.3L8.25173 9.13421C8.3739 8.69605 8.49607 8.23421 8.69597 7.85526C9.26238 6.71842 10.0398 5.74737 11.0949 4.89474C11.8056 4.31447 12.5942 4.27895 13.5826 4.78816C15.0819 5.55789 16.5812 6.32763 18.0694 7.09737C18.1138 7.12105 18.1805 7.20395 18.2138 7.29868C18.6136 8.68421 19.0134 10.0816 19.4132 11.4671C19.6687 12.3553 19.9241 13.2553 20.1795 14.1434C20.224 14.2737 20.2018 14.3092 20.1351 14.3684C19.9352 14.5224 19.7464 14.6882 19.5465 14.8658L19.3688 15.0197C18.3249 13.4803 17.0921 12.2132 15.8926 10.9816C15.4928 10.5671 15.093 10.1526 14.6932 9.73816C14.1823 9.19342 13.6603 8.60132 13.0828 7.93816C12.9162 7.73684 12.7385 7.64211 12.5386 7.64211ZM4.14253 3.92368C3.73161 7.32237 2.94308 10.6263 2.17677 13.8237L2.15456 13.9303H0V3C1.43267 3.17763 2.7987 3.34342 4.14253 3.92368Z" fill="#9B0000"/>
</svg>
