<svg width="24" height="24" viewBox="0 0 24 24" fill="none" xmlns="http://www.w3.org/2000/svg">
<g clip-path="url(#clip0_2181_6508)">
<path d="M8.03793 19.8053C6.82802 19.6555 6.32806 19.116 6.10807 17.7275C5.99808 17.7075 5.86809 17.7075 5.7581 17.6575C5.45812 17.5277 5.09815 17.4378 4.86817 17.208C3.85824 16.179 2.81832 15.1701 1.92839 14.0312C-0.0214636 11.5438 -0.501427 8.68666 0.528495 5.64975C1.57842 2.58288 3.70825 0.754737 6.71803 0.155347C8.59788 -0.214276 10.3777 0.155347 12.0376 1.16432C12.1876 1.25423 12.2976 1.26422 12.4576 1.17431C17.2272 -1.49297 23.0168 1.54393 23.8867 7.19818C24.2867 9.79553 23.6167 12.0932 22.0469 14.1111C21.6769 14.5807 21.1569 14.7705 20.567 14.8104C20.567 15.3898 20.377 15.8893 19.987 16.2889C19.607 16.6785 19.1371 16.8484 18.6071 16.8783C18.5671 17.3578 18.4571 17.7874 18.1772 18.167C17.8372 18.6265 17.3972 18.8963 16.8473 18.9462C16.6973 18.9562 16.6173 18.9962 16.6073 19.176C16.5773 19.6955 16.3573 20.135 16.0173 20.4946C15.0974 21.4836 14.1775 22.4726 13.2375 23.4416C12.6876 24.0111 12.0276 24.1609 11.3177 23.8712C10.5877 23.5815 10.1378 23.0121 10.0478 22.1629C10.0278 22.0231 10.0478 21.9132 9.85779 21.8832C8.78787 21.7034 8.21791 21.0641 8.05792 19.9152C8.05792 19.8853 8.04792 19.8553 8.03793 19.8153V19.8053ZM14.7274 16.9283C15.3074 16.9183 15.7573 17.208 16.1973 17.5976C16.5273 17.8973 17.0372 17.8074 17.3172 17.4577C17.5772 17.1381 17.5672 16.6785 17.2872 16.3289C17.2272 16.249 17.1472 16.179 17.0772 16.0991C15.5574 14.4808 14.0275 12.8524 12.5076 11.2341C12.4376 11.1641 12.3676 11.0842 12.3076 11.0043C12.1376 10.7645 12.1576 10.4549 12.3476 10.2451C12.5476 10.0253 12.8276 10.0053 13.0575 10.1851C13.1375 10.2451 13.2075 10.325 13.2775 10.4049C14.8474 12.0732 16.4173 13.7415 17.9872 15.4098C18.3471 15.7894 18.8171 15.8194 19.1671 15.4797C19.5471 15.1201 19.5371 14.5907 19.1371 14.1611C17.5772 12.4828 16.0173 10.8045 14.4574 9.12622C14.3774 9.0463 14.2975 8.96638 14.2475 8.86648C14.0275 8.51684 14.2275 8.04731 14.6174 7.97739C14.8574 7.93743 15.0274 8.06729 15.1874 8.23712C16.2273 9.35598 17.2772 10.4649 18.3271 11.5737C18.8771 12.1531 19.4171 12.7425 19.977 13.3219C20.267 13.6216 20.577 13.6916 20.887 13.5317C21.4769 13.232 21.5769 12.5327 21.0969 12.0133C19.1071 9.88544 17.1072 7.7676 15.1074 5.63976C15.0674 5.59981 15.0274 5.56984 14.9774 5.52988C14.2375 6.12927 13.4975 6.70868 12.7676 7.29808C12.0476 7.87749 11.3377 8.4569 10.6077 9.02632C9.87779 9.58575 8.94786 9.60573 8.21791 9.08626C7.51797 8.59676 7.17799 7.70766 7.34798 6.80858C7.43797 6.35903 7.64795 5.9994 7.93793 5.66973C9.01785 4.44098 10.0878 3.20225 11.1677 1.9735C11.1277 1.95352 11.0377 1.90357 10.9477 1.86361C9.56781 1.20428 8.14792 1.03445 6.66803 1.35413C2.86832 2.19327 0.698482 6.01938 1.24844 9.75558C1.57842 11.9433 2.76832 13.5317 4.23821 14.8804C4.47819 14.5707 4.70818 14.241 4.96816 13.9413C5.32813 13.5317 5.7181 13.1421 6.09807 12.7325C6.56804 12.2331 7.028 11.7136 7.51796 11.2341C8.09792 10.6647 8.78787 10.5248 9.52781 10.8145C10.2678 11.1042 10.6477 11.7136 10.7477 12.5327C10.7477 12.6027 10.7777 12.6726 10.7877 12.7325C11.9876 12.8824 12.6476 13.5817 12.7576 14.8304C13.9775 15.0002 14.5274 15.5996 14.7174 16.9383L14.7274 16.9283ZM22.2468 11.5937C22.8268 10.2051 22.9968 8.80654 22.7668 7.34803C21.9369 2.03344 15.9373 -0.434052 11.9776 2.92253C10.8477 4.18125 9.6978 5.42998 8.59788 6.71867C8.16792 7.22815 8.47789 8.08727 9.09785 8.26709C9.45782 8.36699 9.76779 8.24711 10.0578 8.01735C11.5577 6.81857 13.0575 5.61979 14.5574 4.431C14.9874 4.09134 15.1774 4.10133 15.5574 4.51091C17.7072 6.79859 19.857 9.07627 22.0069 11.3639C22.0769 11.4339 22.1469 11.5038 22.2468 11.6137V11.5937ZM8.14792 18.6465C8.25791 18.5766 8.48789 18.4867 8.65788 18.3169C9.55781 17.3878 10.4377 16.4388 11.3177 15.4997C11.6876 15.1001 11.7076 14.6006 11.3577 14.231C11.0277 13.8814 10.5077 13.8914 10.1478 14.271C9.23783 15.23 8.3379 16.189 7.43797 17.158C7.18799 17.4278 7.13799 17.7474 7.26798 18.0871C7.39797 18.4367 7.66795 18.6166 8.14792 18.6565V18.6465ZM10.1278 20.7144C10.2278 20.6545 10.4677 20.5646 10.6277 20.3947C11.5177 19.4757 12.3876 18.5366 13.2675 17.5976C13.6475 17.188 13.6575 16.6885 13.3075 16.2989C12.9776 15.9393 12.4976 15.9493 12.1276 16.3389C11.2077 17.2979 10.3078 18.2769 9.39782 19.2459C9.14784 19.5156 9.09784 19.8353 9.22784 20.175C9.35783 20.5346 9.62781 20.7044 10.1278 20.7144ZM8.76787 11.8335C8.57789 11.9334 8.3579 12.0033 8.21791 12.1531C7.28798 13.1122 6.37805 14.0912 5.46812 15.0702C5.14814 15.4198 5.15814 15.9393 5.48812 16.2789C5.80809 16.6286 6.29806 16.6486 6.62803 16.3089C7.56796 15.3299 8.48789 14.3409 9.41782 13.3419C9.6578 13.0822 9.7078 12.7026 9.56781 12.3829C9.41782 12.0432 9.15784 11.8934 8.77787 11.8335H8.76787ZM15.5774 19.0261C15.5174 18.8363 15.4874 18.6865 15.4174 18.5666C15.1274 18.0272 14.5274 17.9572 14.0875 18.4168C13.1875 19.3558 12.3076 20.3148 11.4077 21.2539C11.0477 21.6435 11.0277 22.133 11.3477 22.5026C11.6677 22.8622 12.2076 22.8722 12.5576 22.5026C13.4775 21.5436 14.3874 20.5746 15.2874 19.5956C15.4274 19.4457 15.4774 19.206 15.5674 19.0261H15.5774Z" fill="#6A6A6A"/>
</g>
<defs>
<clipPath id="clip0_2181_6508">
<rect width="24" height="24" fill="white"/>
</clipPath>
</defs>
</svg>
