<svg width="24" height="24" viewBox="0 0 24 24" fill="none" xmlns="http://www.w3.org/2000/svg">
<path d="M7.64019 24C6.33284 23.568 5.0135 23.124 3.70615 22.692C2.95053 22.44 2.1949 22.188 1.45128 21.936C0.527737 21.636 0 20.904 0 19.92C0 13.98 0 8.04 0 2.1C0 0.864 0.851575 0 2.08696 0C5.78111 0 9.47527 0.012 13.1694 0C14.5967 0 16 1.104 16 2.772C16 4.236 16 5.712 16 7.176C16 7.668 15.6762 8.016 15.2444 8.016C14.8006 8.016 14.4888 7.656 14.4888 7.152C14.4888 5.712 14.4888 4.26 14.4888 2.82C14.4888 2.052 13.973 1.512 13.2054 1.512C11.1544 1.512 9.11545 1.512 7.06447 1.512C7.04048 1.512 7.0165 1.512 6.99251 1.548C7.48426 1.716 7.96402 1.884 8.45578 2.028C9.23539 2.28 9.76313 2.76 9.95503 3.576C10.003 3.792 10.003 4.008 10.003 4.224C10.003 9.204 10.003 14.172 10.003 19.152V19.5C10.3508 19.5 10.6627 19.5 10.9865 19.5C11.7062 19.5 12.4258 19.5 13.1454 19.5C13.973 19.5 14.4888 18.984 14.4888 18.156C14.4888 16.716 14.4888 15.264 14.4888 13.824C14.4888 13.416 14.6927 13.14 15.0525 13.032C15.4843 12.912 15.928 13.188 15.988 13.632C15.988 13.704 16 13.788 16 13.86C16 15.3 16 16.728 16 18.168C16 19.632 15.0765 20.7 13.6492 20.964C13.5173 20.988 13.3733 20.988 13.2294 20.988C12.1859 20.988 11.1424 20.988 10.087 20.988C10.075 20.988 10.051 20.988 10.003 21.012C10.003 21.252 10.015 21.516 10.003 21.768C9.99101 22.044 9.97902 22.332 9.90705 22.596C9.69116 23.292 9.19941 23.736 8.50375 23.94C8.45578 23.952 8.4078 23.976 8.35983 24H7.64019ZM8.49176 13.032C8.49176 10.068 8.49176 7.116 8.49176 4.152C8.49176 3.732 8.39581 3.612 8.00001 3.468C6.10495 2.832 4.1979 2.22 2.31484 1.572C1.82309 1.404 1.49925 1.704 1.51125 2.16C1.51125 8.052 1.51125 13.956 1.51125 19.848C1.51125 20.244 1.61919 20.388 1.99101 20.52C3.89805 21.156 5.8051 21.768 7.70016 22.428C8.13194 22.572 8.50375 22.356 8.50375 21.84C8.47977 18.9 8.50375 15.972 8.50375 13.032H8.49176Z" fill="#6A6A6A"/>
<path d="M23.988 10.7399C23.8441 10.9079 23.7121 11.0879 23.5562 11.2439C22.3928 12.4079 21.2294 13.5719 20.066 14.7359C19.7421 15.0599 19.3103 15.0839 18.9985 14.8079C18.6507 14.5079 18.6507 14.0279 18.9985 13.6679C19.7301 12.9239 20.4738 12.1919 21.2174 11.4479C21.2774 11.3879 21.3253 11.3399 21.4213 11.2439C21.3013 11.2439 21.2174 11.2439 21.1334 11.2439C18.6747 11.2439 16.2159 11.2439 13.7571 11.2439C13.3613 11.2439 13.0495 10.9679 13.0015 10.5839C12.9535 10.2479 13.1814 9.87592 13.5412 9.77992C13.6492 9.75592 13.7571 9.74392 13.8651 9.74392C16.2879 9.74392 18.7106 9.74392 21.1214 9.74392H21.4213C21.3373 9.64792 21.2894 9.58792 21.2294 9.52792C20.4858 8.78392 19.7541 8.05192 19.0105 7.30792C18.6867 6.98392 18.6627 6.52792 18.9625 6.21592C19.2504 5.90392 19.7181 5.89192 20.03 6.19192C20.3178 6.46792 20.5937 6.75592 20.8816 7.03192C21.8411 7.99192 22.8006 8.95192 23.7601 9.91192C23.8561 10.0079 23.928 10.1279 24 10.2479C24 10.4039 24 10.5599 24 10.7159L23.988 10.7399Z" fill="#6A6A6A"/>
</svg>
