<svg width="24" height="24" viewBox="0 0 24 24" fill="none" xmlns="http://www.w3.org/2000/svg">
<path d="M0 3C0 2.17158 0.67158 1.5 1.5 1.5H22.5C23.3284 1.5 24 2.17158 24 3C24 3.82842 23.3284 4.5 22.5 4.5H1.5C0.67158 4.5 0 3.82842 0 3Z" fill="white"/>
<path d="M0 21C0 20.1716 0.67158 19.5 1.5 19.5H22.5C23.3284 19.5 24 20.1716 24 21C24 21.8284 23.3284 22.5 22.5 22.5H1.5C0.67158 22.5 0 21.8284 0 21Z" fill="white"/>
<path d="M1.5 10.5C0.67158 10.5 0 11.1715 0 12C0 12.8285 0.67158 13.5 1.5 13.5H13.5C14.3285 13.5 15 12.8285 15 12C15 11.1715 14.3285 10.5 13.5 10.5H1.5Z" fill="white"/>
</svg>
