<svg width="24" height="24" viewBox="0 0 24 24" fill="none" xmlns="http://www.w3.org/2000/svg">
<path d="M11.5982 1.00956C7.10367 1.22434 3.65978 5.14214 3.65978 9.67616V13.7759L2.18611 16.7838C2.18352 16.7892 2.18099 16.7947 2.17851 16.8003C1.58566 18.0794 2.54536 19.6153 3.93887 19.6153H8.66393C8.66393 21.4746 10.1675 23 12 23C13.8326 23 15.3361 21.4746 15.3361 19.6153H20.0601C21.4536 19.6153 22.4146 18.0797 21.8215 16.8003C21.8191 16.7947 21.8165 16.7892 21.8139 16.7838L20.3403 13.7759V9.46132C20.3403 4.66287 16.3722 0.781537 11.5982 1.00956ZM11.6764 2.69969C15.5241 2.51591 18.6722 5.60404 18.6722 9.46132V13.9742C18.6721 14.1049 18.7019 14.2339 18.7591 14.351L20.312 17.5219C20.4119 17.7391 20.2964 17.923 20.0601 17.923H3.93887C3.7026 17.923 3.588 17.7394 3.68801 17.5219V17.5208L5.24095 14.351C5.29821 14.2339 5.32794 14.1049 5.32783 13.9742V9.67616C5.32783 6.00914 8.09648 2.87076 11.6764 2.69969ZM10.332 19.6153H13.6681C13.6681 20.5597 12.9309 21.3077 12 21.3077C11.0692 21.3077 10.332 20.5597 10.332 19.6153Z" fill="white"/>
</svg>
