<svg width="23" height="24" viewBox="0 0 23 24" fill="none" xmlns="http://www.w3.org/2000/svg">
<path d="M21 15.0254C21 13.6936 21 12.3498 21 11.018C21 9.99815 20.335 9.33825 19.2781 9.32625C19.2069 9.32625 19.1475 9.32625 19.0763 9.31425H19.0644V9.29026C19.0644 9.24226 19.0644 9.19427 19.0644 9.14628C19.0644 8.84632 19.0644 8.55837 19.0644 8.25841C19.0644 7.62251 19.0644 6.96261 18.9813 6.32671C18.6963 4.35901 17.6512 2.63128 16.0362 1.45546C14.3025 0.219646 12.1175 -0.260281 10.0037 0.135658C6.75 0.759563 4.2325 3.50714 4.01875 6.68665C3.98313 7.29856 3.98312 7.92247 3.995 8.53437C3.995 8.78633 3.995 9.03829 3.995 9.29026H3.95937C3.95937 9.29026 3.9 9.31425 3.87625 9.31425C2.54625 9.36224 2 9.92616 2 11.258V14.9054C2 17.341 2 19.7646 2 22.2003C2 23.3641 2.65312 24 3.84062 24C6.39375 24 8.94687 24 11.5 24C14.0531 24 16.6062 24 19.1594 24C20.3469 24 21 23.3641 21 22.2003C21 20.9645 21 19.7287 21 18.4808V15.0134V15.0254ZM19.3731 22.1163C19.3731 22.2483 19.3494 22.3323 19.3137 22.3802C19.2781 22.4282 19.1831 22.4402 19.0406 22.4402C17.0931 22.4402 15.1338 22.4402 13.1863 22.4402H9.71875C7.83062 22.4402 5.93063 22.4402 4.03063 22.4402H4.01875C3.8525 22.4402 3.7575 22.4162 3.71 22.3682C3.6625 22.3203 3.63875 22.2243 3.63875 22.0803C3.65062 18.6128 3.65062 15.0614 3.63875 11.222C3.63875 11.078 3.6625 10.994 3.69812 10.946C3.74562 10.898 3.82875 10.886 3.995 10.886C8.935 10.886 13.9937 10.886 19.0169 10.886C19.1831 10.886 19.2781 10.91 19.3256 10.946C19.3613 10.994 19.385 11.078 19.385 11.222C19.3731 14.6654 19.3731 18.2289 19.385 22.1283L19.3731 22.1163ZM8.19875 2.55929C10.1581 1.31148 12.1769 1.1915 14.2194 2.22334C16.2619 3.26718 17.3425 4.94692 17.4137 7.25057C17.4256 7.73049 17.4137 8.19842 17.4137 8.70235C17.4137 8.89432 17.4137 9.09828 17.4137 9.29026H5.63375C5.0875 6.60267 6.10875 3.90308 8.19875 2.55929Z" fill="white"/>
<path d="M11.5713 12.5418C11.5713 12.5418 11.5238 12.5418 11.5 12.5418C10.2888 12.5418 9.16063 13.3817 8.85188 14.5335C8.48376 15.9133 9.08938 16.9811 10.7044 17.821V18.3369C10.7044 18.8289 10.7044 19.3328 10.7044 19.8367C10.7044 20.3766 11.025 20.7366 11.4881 20.7366C11.7019 20.7366 11.88 20.6646 12.0225 20.5206C12.1888 20.3646 12.2719 20.1247 12.2719 19.8487C12.2719 19.3448 12.2719 18.8528 12.2719 18.3369V17.797C13.8631 17.2091 14.3738 15.8653 14.1838 14.7855C13.9581 13.5017 12.8656 12.5658 11.5475 12.5298L11.5713 12.5418ZM11.4881 14.1376C11.7969 14.1376 12.0938 14.2696 12.3194 14.4855C12.5213 14.7015 12.64 14.9654 12.6281 15.2414C12.6281 15.8173 12.0819 16.3332 11.5 16.3332C11.2031 16.3332 10.9063 16.2013 10.6806 15.9733C10.4669 15.7573 10.36 15.4814 10.36 15.2174C10.36 14.6295 10.8706 14.1376 11.4881 14.1376Z" fill="white"/>
</svg>
