<svg width="24" height="24" viewBox="0 0 24 24" fill="none" xmlns="http://www.w3.org/2000/svg">
<g clip-path="url(#clip0_2181_6506)">
<path d="M23.4 23.0292C23.14 23.0392 22.87 23.0292 22.58 23.0292C22.58 22.5988 22.58 22.1885 22.58 21.7782C22.54 20.3069 21.9 19.2661 20.65 18.6556C20.61 18.6355 20.57 18.6055 20.53 18.5855C21.93 17.2244 21.97 15.2727 21.16 13.9616C20.59 13.0409 19.79 12.4904 18.76 12.3603C17.73 12.2202 16.84 12.5905 16.05 13.3311C15.77 11.1293 14.18 9.66807 12.42 9.47792C11.44 9.37783 10.52 9.60802 9.71 10.1985C8.69 10.9491 8.11 11.99 7.93 13.3311C7.47 12.8807 6.98 12.5805 6.41 12.4304C5.84 12.2802 5.27 12.2903 4.7 12.4704C4.13 12.6506 3.64 12.9608 3.23 13.4112C2.67 14.0317 2.36 14.7723 2.31 15.623C2.24 16.804 2.66 17.7848 3.48 18.5755C2 19.2661 1.35 20.4771 1.42 22.1485C1.43 22.4287 1.42 22.7089 1.42 23.0192C1.13 23.0192 0.87 23.0192 0.6 23.0192C0.32 23.0092 0.12 23.1093 0 23.3895V23.6897C0.15 23.95 0.37 24.02 0.65 24.02C3.61 24.02 6.56 24.02 9.52 24.02H14.11C14.16 24.02 14.22 24.02 14.27 24.02H15.04C17.8 24.02 20.56 24.02 23.33 24.02C23.62 24.02 23.85 23.95 24 23.6897V23.3895C23.89 23.1093 23.68 22.9992 23.4 23.0192V23.0292ZM12.01 10.4587C13.75 10.4587 15.15 11.97 15.14 13.8315C15.14 15.6731 13.73 17.1743 12 17.1743C10.26 17.1743 8.85 15.6531 8.86 13.7915C8.86 11.95 10.29 10.4587 12.01 10.4687V10.4587ZM15.62 17.8949C15.26 17.7048 14.87 17.5046 14.48 17.2944C14.68 17.0842 14.9 16.8641 15.11 16.6539C15.29 17.0943 15.46 17.5046 15.62 17.8949ZM8.89 16.6539C9.1 16.8641 9.32 17.0842 9.52 17.2944C9.13 17.4946 8.74 17.7048 8.37 17.8949C8.53 17.5046 8.71 17.0842 8.88 16.6539H8.89ZM6.79 23.0092H2.4C2.4 22.4087 2.33 21.8182 2.41 21.2477C2.55 20.2669 3.35 19.4963 4.28 19.4362C5.14 19.3762 6 19.4162 6.85 19.4162C6.94 19.4162 7.03 19.4462 7.17 19.4662C6.62 20.6072 6.84 21.8182 6.78 23.0092H6.79ZM5.62 18.4053C4.31 18.4053 3.25 17.2744 3.24 15.8832C3.24 14.4821 4.32 13.3311 5.63 13.3411C6.93 13.3411 8 14.4921 7.99 15.8832C7.99 17.2844 6.93 18.4154 5.62 18.4154V18.4053ZM16.27 23.0192C16.18 23.0192 16.09 23.0292 16.01 23.0292C15.39 23.0292 14.78 23.0292 14.16 23.0292C14.16 23.0292 14.15 23.0292 14.14 23.0292H9.82C9.82 23.0292 9.74 23.0292 9.7 23.0292C9.14 23.0292 8.58 23.0292 8.01 23.0292H7.72C7.79 22.0584 7.58 21.0976 7.91 20.1868C8.36 18.9658 9.2 18.2652 10.42 18.1952C11.46 18.1351 12.51 18.1451 13.56 18.1952C15.05 18.2552 16.23 19.5963 16.25 21.1977C16.25 21.7982 16.25 22.3987 16.25 23.0292L16.27 23.0192ZM16.01 15.8832C16.01 14.4921 17.06 13.3411 18.37 13.3311C19.68 13.3311 20.76 14.4721 20.76 15.8732C20.76 17.2644 19.7 18.4053 18.39 18.4053C17.08 18.4053 16.02 17.2844 16.01 15.8832ZM21.63 23.0192H17.2C17.2 22.4087 17.2 21.8182 17.2 21.2277C17.2 20.6272 17.07 20.0567 16.83 19.4662C16.99 19.4462 17.14 19.4162 17.28 19.4162C18.01 19.4162 18.73 19.4062 19.46 19.4162C20.64 19.4362 21.53 20.2969 21.63 21.548C21.67 22.0284 21.63 22.5088 21.63 23.0192Z" fill="#6A6A6A"/>
<path d="M9.49 4.6439C9.56 4.73397 9.61 4.88409 9.6 4.99419C9.58 5.44456 9.53 5.89494 9.5 6.34531C9.46 7.09594 10.02 7.52629 10.68 7.23605C11.06 7.06591 11.44 6.88576 11.82 6.72563C11.92 6.68559 12.07 6.68559 12.17 6.72563C12.56 6.88576 12.93 7.06591 13.31 7.23605C13.43 7.28609 13.56 7.31612 13.69 7.35615C14.16 7.32613 14.51 6.9358 14.48 6.41537C14.46 5.96499 14.42 5.51462 14.37 5.06424C14.35 4.87409 14.39 4.73397 14.52 4.59385C14.79 4.2836 15.04 3.97334 15.29 3.65307C15.76 3.06258 15.54 2.35199 14.84 2.17184C14.44 2.06175 14.03 1.98168 13.63 1.86158C13.52 1.83155 13.41 1.74148 13.35 1.6414C13.13 1.2911 12.94 0.910788 12.73 0.550488C12.33 -0.150095 11.63 -0.160104 11.24 0.54048C11.03 0.910788 10.83 1.2911 10.61 1.6514C10.55 1.74148 10.45 1.83155 10.35 1.86158C9.96 1.97167 9.56 2.06175 9.17 2.16183C8.43 2.34198 8.21 3.06258 8.71 3.6831C8.97 4.00336 9.24 4.32363 9.49 4.6539V4.6439ZM10.65 2.82238C11 2.76233 11.22 2.58218 11.39 2.2519C11.57 1.8916 11.78 1.55132 12 1.161C12.21 1.5313 12.42 1.86158 12.59 2.21187C12.76 2.57217 13 2.77234 13.37 2.83239C13.74 2.89244 14.1 3.01254 14.5 3.11262C14.22 3.46291 13.97 3.78318 13.7 4.09344C13.48 4.34364 13.38 4.59385 13.43 4.94414C13.49 5.36449 13.5 5.78484 13.54 6.25524C13.19 6.10511 12.86 5.98501 12.56 5.80486C12.17 5.58468 11.82 5.58468 11.43 5.80486C11.13 5.975 10.8 6.0951 10.45 6.25524C10.49 5.7348 10.55 5.26441 10.56 4.79402C10.56 4.61387 10.51 4.39369 10.4 4.25357C10.13 3.87325 9.82 3.51295 9.49 3.12263C9.89 3.02255 10.27 2.90245 10.65 2.8424V2.82238Z" fill="#6A6A6A"/>
<path d="M3.24 7.61637C3.31 7.70644 3.35 7.84656 3.35 7.96666C3.35 8.27692 3.31 8.58718 3.28 8.91745C3.16 9.578 3.78 10.1184 4.43 9.76816C4.69 9.62804 4.96 9.51795 5.23 9.40786C5.32 9.36783 5.44 9.36783 5.53 9.40786C5.82 9.51795 6.11 9.66807 6.39 9.78817C7.02 10.0684 7.56 9.63805 7.48 8.90744C7.45 8.59718 7.41 8.29693 7.41 7.98668C7.41 7.85657 7.45 7.70644 7.53 7.60636C7.72 7.34614 7.94 7.10594 8.14 6.84573C8.53 6.32529 8.34 5.68476 7.73 5.51462C7.44 5.43455 7.14 5.35448 6.84 5.29443C6.68 5.26441 6.58 5.18434 6.5 5.03422C6.36 4.76399 6.21 4.50378 6.06 4.24356C5.7 3.62304 5.06 3.62304 4.7 4.24356C4.55 4.50378 4.39 4.76399 4.26 5.04423C4.18 5.20436 4.06 5.28443 3.9 5.32446C3.61 5.38451 3.32 5.46458 3.03 5.53463C2.43 5.68476 2.22 6.35532 2.61 6.85573C2.81 7.11595 3.04 7.36616 3.23 7.63638L3.24 7.61637ZM4.38 6.2152C4.63 6.16516 4.81 6.03505 4.93 5.79485C5.06 5.53463 5.22 5.28443 5.39 4.98418C5.54 5.2544 5.69 5.48459 5.82 5.74481C5.96 6.02504 6.15 6.18518 6.45 6.23522C6.71 6.27525 6.96 6.35532 7.25 6.43538C7.04 6.6956 6.85 6.9358 6.65 7.176C6.49 7.35615 6.43 7.55632 6.46 7.81653C6.5 8.11678 6.51 8.42704 6.54 8.77733C6.23 8.63722 5.96 8.52713 5.69 8.39702C5.48 8.29693 5.29 8.29693 5.08 8.39702C4.81 8.52713 4.54 8.64722 4.24 8.77733C4.27 8.42704 4.29 8.1368 4.32 7.83655C4.35 7.56633 4.29 7.34614 4.11 7.15598C3.92 6.94581 3.74 6.70561 3.53 6.44539C3.83 6.36533 4.11 6.29527 4.38 6.23522V6.2152Z" fill="#6A6A6A"/>
<path d="M16.45 7.56633C16.57 7.69643 16.62 7.82654 16.6 8.0167C16.56 8.35698 16.54 8.69727 16.51 9.06757C16.49 9.63805 17.01 10.0384 17.53 9.82821C17.84 9.6981 18.15 9.54797 18.46 9.41787C18.56 9.37783 18.69 9.37783 18.78 9.41787C19.09 9.53797 19.38 9.68809 19.69 9.8182C20.24 10.0484 20.76 9.65807 20.73 9.02754C20.72 8.68726 20.69 8.34697 20.65 8.00669C20.63 7.83655 20.67 7.72646 20.77 7.60636C20.98 7.35615 21.19 7.10594 21.38 6.84573C21.76 6.34531 21.56 5.69477 20.98 5.53463C20.69 5.45457 20.4 5.38451 20.11 5.32446C19.93 5.28443 19.81 5.20436 19.72 5.02421C19.58 4.74398 19.42 4.47375 19.26 4.20353C18.93 3.65307 18.3 3.65307 17.97 4.20353C17.83 4.44373 17.68 4.68393 17.56 4.93413C17.44 5.19435 17.27 5.31445 17.01 5.35448C16.76 5.39452 16.52 5.47458 16.28 5.53463C15.66 5.69477 15.45 6.34531 15.86 6.86574C16.05 7.10594 16.24 7.35615 16.44 7.58634L16.45 7.56633ZM17.66 6.20519C17.88 6.15515 18.04 6.03505 18.15 5.82488C18.29 5.54464 18.45 5.28443 18.62 4.98418C18.8 5.29443 18.94 5.59468 19.12 5.8549C19.22 5.99502 19.38 6.12513 19.53 6.17517C19.82 6.28526 20.13 6.3353 20.47 6.42538C20.26 6.67558 20.09 6.91578 19.89 7.13597C19.71 7.33613 19.65 7.54631 19.68 7.81653C19.72 8.11678 19.73 8.40702 19.76 8.75732C19.46 8.62721 19.2 8.51712 18.94 8.38701C18.72 8.27692 18.51 8.26691 18.29 8.38701C18.03 8.51712 17.76 8.62721 17.46 8.76732C17.49 8.40702 17.5 8.09677 17.54 7.7765C17.57 7.54631 17.51 7.35615 17.36 7.18601C17.16 6.94581 16.96 6.6956 16.75 6.43538C17.07 6.35532 17.36 6.27525 17.65 6.2152L17.66 6.20519Z" fill="#6A6A6A"/>
</g>
<defs>
<clipPath id="clip0_2181_6506">
<rect width="24" height="24" fill="white"/>
</clipPath>
</defs>
</svg>
