<svg width="24" height="24" viewBox="0 0 24 24" fill="none" xmlns="http://www.w3.org/2000/svg">
<g clip-path="url(#clip0_2181_6510)">
<path d="M23.7985 23.0265C22.0588 20.7995 20.329 18.5726 18.5993 16.3456C18.4393 16.1359 18.2394 16.036 17.9794 16.036C16.9096 16.036 15.8397 16.036 14.7699 16.036H13.7001C13.87 15.8064 14.03 15.5767 14.2 15.347C14.5999 14.8077 15.0099 14.2485 15.3998 13.6793C16.2397 12.4609 17.2995 10.8232 18.0794 8.98567C18.6093 7.71741 18.7593 6.549 18.5293 5.41056C17.9694 2.69427 15.8697 0.617109 13.1901 0.127778C10.4906 -0.37154 7.81098 0.816836 6.3512 3.14366C5.53133 4.45187 5.21138 5.82999 5.39135 7.24805C5.50133 8.14682 5.86128 8.97569 6.23122 9.74464C7.33105 12.0115 8.77083 14.0488 10.0406 15.7364L10.2806 16.056H9.33074C8.22091 16.056 7.11108 16.056 6.01125 16.056C5.74129 16.056 5.55132 16.1459 5.40135 16.3456C3.66161 18.5826 1.91188 20.8295 0.172151 23.0664C0.0921637 23.1663 -0.097807 23.406 0.0621684 23.7155C0.212145 24.0151 0.512099 24.0151 0.642079 24.0151C8.21091 24.0151 15.7797 24.0151 23.3486 24.0151C23.4786 24.0151 23.7985 24.0151 23.9485 23.6956C24.0885 23.406 23.9085 23.1763 23.8185 23.0564L23.7985 23.0265ZM4.88143 18.7124L4.90142 18.6824C5.29136 18.1831 5.6713 17.6838 6.06124 17.1945C6.10124 17.1545 6.15123 17.1146 6.17123 17.1146C6.55117 17.1146 6.93111 17.1146 7.32105 17.1146H7.44103C7.05109 17.6638 6.68115 18.1731 6.31121 18.6924C6.31121 18.6924 6.27121 18.7124 6.26121 18.7124C5.85128 18.7124 5.44134 18.7124 5.0214 18.7124H4.87143H4.88143ZM22.3487 22.9067H21.4789C20.879 22.9067 20.2691 22.9067 19.6592 22.9067C19.5692 22.9067 19.5392 22.8867 19.4992 22.8168C19.2792 22.4073 19.0392 22.0079 18.8093 21.5885L18.6393 21.2988H20.0191C20.349 21.2988 20.669 21.2988 20.9989 21.2988C21.0589 21.2988 21.1089 21.3188 21.1289 21.3288C21.4889 21.7782 21.8388 22.2276 22.1888 22.687L22.3487 22.8967V22.9067ZM5.92127 20.2403H3.69161C3.80159 20.0905 3.91158 19.9607 4.02156 19.8309C4.03156 19.8109 4.10155 19.7909 4.15154 19.7909C4.92142 19.7909 5.6913 19.7909 6.46118 19.7909C6.75114 19.7909 6.93111 19.691 7.09109 19.4713C7.29106 19.1817 7.50102 18.9021 7.70099 18.6125C8.01094 18.1831 8.3109 17.7637 8.61085 17.3243C8.74083 17.1345 8.84082 17.0746 9.02079 17.1046C9.05078 17.1046 9.08078 17.1046 9.11078 17.1046L8.73083 17.7936C8.53086 18.1531 8.33089 18.5027 8.14092 18.8622C7.96095 19.1817 8.01095 19.3915 8.08093 19.5113C8.15092 19.6311 8.3109 19.7709 8.68084 19.7709H10.7405C13.7101 19.7709 16.6896 19.7709 19.6592 19.7709C19.8791 19.7709 19.9791 19.8209 20.0791 19.9707C20.1391 20.0605 20.1991 20.1504 20.2691 20.2303H19.2692C18.7893 20.2303 18.3094 20.2303 17.8394 20.2303C17.4795 20.2303 17.3195 20.3701 17.2495 20.49C17.1795 20.6098 17.1295 20.8195 17.3095 21.1291C17.5295 21.5185 17.7594 21.908 17.9894 22.3075L18.3294 22.8967H18.2794C17.9594 22.8967 17.6395 22.8967 17.3295 22.8967C17.3195 22.8767 17.2995 22.8567 17.2895 22.8268L17.1095 22.4073C16.8696 21.8681 16.6296 21.3088 16.3997 20.7496C16.2497 20.3801 16.0197 20.2203 15.6198 20.2203C12.3903 20.2203 9.17077 20.2203 5.94126 20.2203L5.92127 20.2403ZM10.6605 14.7778C9.43073 13.11 8.16092 11.2925 7.18107 9.26529C6.88112 8.64614 6.55117 7.91713 6.45118 7.1382C6.29121 6.00974 6.55117 4.8713 7.21107 3.7728C8.21091 2.10508 10.0806 1.07648 11.9603 1.07648C12.2503 1.07648 12.5502 1.10644 12.8402 1.15637C15.2098 1.5758 16.9796 3.27348 17.4595 5.57034C17.6695 6.58895 17.5095 7.62753 16.9696 8.85585C16.1397 10.7233 15.0199 12.381 14.14 13.6193C13.6401 14.3184 13.1402 14.9975 12.6002 15.7065C12.4003 15.9761 12.2003 16.2458 11.9903 16.5254C11.8704 16.3656 11.7404 16.2058 11.6204 16.046C11.2904 15.6166 10.9705 15.2072 10.6605 14.7877V14.7778ZM9.46072 18.7024L9.56071 18.5226C9.82067 18.0533 10.0806 17.5839 10.3306 17.1445C10.3306 17.1445 10.3606 17.1246 10.3806 17.1246H10.4606C10.9405 17.0447 11.2604 17.1845 11.5104 17.5939C11.6304 17.7936 11.8004 17.9035 11.9803 17.9035C12.1603 17.9035 12.3303 17.7936 12.4603 17.5939C12.6902 17.2244 12.9802 17.0846 13.5101 17.1046C14.6199 17.1345 15.7398 17.1246 16.8296 17.1146H17.6995C17.8094 17.1146 17.8594 17.1445 17.9294 17.2344C18.2394 17.6438 18.5593 18.0533 18.8893 18.4727L19.0792 18.7124H9.47072L9.46072 18.7024ZM1.62193 22.9067L1.98187 22.4373C2.25183 22.0978 2.51179 21.7482 2.79175 21.4087C2.83174 21.3588 2.92173 21.3188 2.96172 21.3188C7.10108 21.3188 11.2404 21.3188 15.3798 21.3188C15.4098 21.3188 15.4398 21.3188 15.4598 21.3288C15.6598 21.7682 15.8497 22.2176 16.0497 22.667L16.1497 22.9067H1.62193Z" fill="#6A6A6A"/>
<path d="M16.3397 6.31936C16.3397 5.14097 15.8897 4.04248 15.0599 3.20362C14.24 2.38474 13.1602 1.92537 12.0103 1.92537C9.6007 1.92537 7.63101 3.87271 7.62101 6.26943C7.62101 7.42785 8.07094 8.51636 8.89081 9.34523C9.71069 10.1641 10.8105 10.6235 11.9803 10.6235C14.37 10.6235 16.3097 8.68613 16.3297 6.30938L16.3397 6.31936ZM11.9703 3.00389H11.9803C13.7901 3.00389 15.2698 4.48188 15.2698 6.29939C15.2698 7.1682 14.9299 7.98709 14.31 8.60624C13.6901 9.22539 12.8602 9.56493 11.9703 9.56493C10.1706 9.56493 8.71084 8.09694 8.71084 6.29939C8.71084 5.41061 9.06079 4.58174 9.68069 3.96258C10.3006 3.34343 11.1205 3.01388 11.9803 3.01388L11.9703 3.00389Z" fill="#6A6A6A"/>
</g>
<defs>
<clipPath id="clip0_2181_6510">
<rect width="24" height="24" fill="white"/>
</clipPath>
</defs>
</svg>
